<?xml version="1.0" encoding="utf-8"?>
<!-- Generator: Adobe Illustrator 25.3.1, SVG Export Plug-In . SVG Version: 6.00 Build 0)  -->
<svg version="1.1" id="Слой_1" xmlns="http://www.w3.org/2000/svg" xmlns:xlink="http://www.w3.org/1999/xlink" x="0px" y="0px"
	 viewBox="0 0 512 512" style="enable-background:new 0 0 512 512;" xml:space="preserve">
<style type="text/css">
	.st0{fill:#005D9E;}
	.st1{fill:#FFFFFF;}
</style>
<rect id="XMLID_1_" class="st0" width="512" height="512"/>
<path id="XMLID_3_" class="st1" d="M276.9121094,290.2354126c51.7045288,0,104.9942322-42.7647705,104.9942322-99.1891937
	C381.9063416,77.75,276.2228394,78,276.2228394,78h-99.4143372c0,59.1111298,0,118.4199677,0,177.53125
	c-10.2377777,0-20.4755707,0-30.7135162,0c0,11.8296814-0.0013123,22.8744812-0.0013123,34.7041626
	c10.3312683,0,20.3835754,0,30.7148285,0c0,7.053009,0,14.4424133,0,21.4954224c-10.245163,0-20.2098999,0-30.4550629,0
	c0,11.41922-0.0019684,22.9507446-0.0019684,34.3700867c10.3010864,0,20.1561127,0,30.4570312,0
	c0,28.6040955,0,57.5450134,0,86.1490784c16.1213837,0,32.3526459,0,48.4738617,0c0-28.7162476,0-57.4328308,0-86.1490784
	c36.1240082,0,72.5856476,0,108.7094879,0c0-11.4567261,0-22.9134827,0-34.3700867c-36.1986084,0-72.5107117,0-108.7094879,0
	c0-7.1651917,0-14.3302307,0-21.4954224C242.4544525,290.2354126,259.7400208,290.2354126,276.9121094,290.2354126z
	 M225.2817078,255.53125l0.0024567-137.8140564c0,0,20.1772766,0,43.9974823,0
	c30.2026978,0,64.8207397,23.5381546,64.8207397,68.6412888c0,40.7366333-35.7158203,69.1727753-60.1216736,69.1727753
	C253.157486,255.53125,225.2817078,255.53125,225.2817078,255.53125z"/>
</svg>
