<?xml version="1.0" encoding="utf-8"?>
<!-- Generator: Adobe Illustrator 19.0.0, SVG Export Plug-In . SVG Version: 6.00 Build 0)  -->
<svg version="1.1" id="Слой_1" xmlns="http://www.w3.org/2000/svg" xmlns:xlink="http://www.w3.org/1999/xlink" x="0px" y="0px"
	 viewBox="0 0 512 512" style="enable-background:new 0 0 512 512;" xml:space="preserve">
<style type="text/css">
	.st0{fill:#033692;}
	.st1{fill:#FFFFFF;}
</style>
<rect id="XMLID_1_" class="st0" width="512" height="512"/>
<path id="XMLID_3_" class="st1" d="M276.9,290.2c51.7,0,105-42.8,105-99.2c0-113.3-105.7-113-105.7-113h-99.4
	c0,59.1,0,118.4,0,177.5c-10.2,0-20.5,0-30.7,0c0,11.8,0,22.9,0,34.7c10.3,0,20.4,0,30.7,0c0,7.1,0,14.4,0,21.5
	c-10.2,0-20.2,0-30.5,0c0,11.4,0,23,0,34.4c10.3,0,20.2,0,30.5,0c0,28.6,0,57.5,0,86.1c16.1,0,32.4,0,48.5,0c0-28.7,0-57.4,0-86.1
	c36.1,0,72.6,0,108.7,0c0-11.5,0-22.9,0-34.4c-36.2,0-72.5,0-108.7,0c0-7.2,0-14.3,0-21.5C242.5,290.2,259.7,290.2,276.9,290.2z
	 M225.3,255.5l0-137.8c0,0,20.2,0,44,0c30.2,0,64.8,23.5,64.8,68.6c0,40.7-35.7,69.2-60.1,69.2C253.2,255.5,225.3,255.5,225.3,255.5
	z"/>
</svg>
