<?xml version="1.0" encoding="utf-8"?>
<svg version="1.1" xmlns="http://www.w3.org/2000/svg" viewBox="0 0 16 16" width = "16" height = "16">
<g>
	<path fill="#000" d="M8.4,3.7c-0.7,0-1.4,0-1.4,0L7,8c0,0,0.9,0,1.5,0c0.8,0,1.9-0.9,1.9-2.2C10.4,4.4,9.4,3.7,8.4,3.7z"/>
	<path fill="#000" d="M0,0v16h16V0H0z M8.7,9.1c-0.5,0-1.1,0-1.6,0c0,0.2,0,0.4,0,0.7c1.1,0,2.3,0,3.4,0c0,0.4,0,0.7,0,1.1c-1.1,0-2.3,0-3.4,0
		c0,0.9,0,1.8,0,2.7c-0.5,0-1,0-1.5,0c0-0.9,0-1.8,0-2.7c-0.3,0-0.6,0-1,0c0-0.4,0-0.7,0-1.1c0.3,0,0.6,0,1,0c0-0.2,0-0.5,0-0.7
		c-0.3,0-0.6,0-1,0c0-0.4,0-0.7,0-1.1c0.3,0,0.6,0,1,0c0-1.8,0-3.7,0-5.5h3.1c0,0,3.3,0,3.3,3.5C11.9,7.7,10.3,9.1,8.7,9.1z"/>
</g>
</svg>
