<?xml version="1.0" encoding="utf-8"?>
<svg xmlns = "http://www.w3.org/2000/svg" viewBox="0 0 16 16" width = "16" height = "16"> 

<path fill="#000"  d="M8.6533995,9.0649509c1.6152649,0,3.2800512-1.3359847,3.2800512-3.0987
	c0-3.5394077-3.3015842-3.5315976-3.3015842-3.5315976H5.5261331c0,1.8466492,0,3.6994748,0,5.5461287
	c-0.3198314,0-0.6396627,0-0.9594994,0c0,0.3695636-0.000041,0.7146058-0.000041,1.0841689c0.322752,0,0.6367888,0,0.9595404,0
	c0,0.2203379,0,0.4511852,0,0.6715231c-0.3200617,0-0.6313634,0-0.9514251,0c0,0.35674-0.0000615,0.7169886-0.0000615,1.0737324
	c0.3218088,0,0.629683,0,0.9514866,0c0,0.8936005,0,1.7977228,0,2.6913223c0.5036368,0,1.0107064,0,1.514338,0
	c0-0.8971043,0-1.7942181,0-2.6913223c1.1285248,0,2.2675972,0,3.3961163,0c0-0.3579121,0-0.7158241,0-1.0737324
	c-1.1308546,0-2.2652559,0-3.3961163,0c0-0.2238426,0-0.4476805,0-0.6715231
	C7.576932,9.0649509,8.1169386,9.0649509,8.6533995,9.0649509z M7.0404506,7.980782l0.0000768-4.3053517
	c0,0,0.6303439,0,1.3744946,0c0.9435406,0,2.0250187,0.7353387,2.0250187,2.1443744
	c0,1.2726245-1.1157722,2.1609778-1.8782187,2.1609778C7.9112978,7.980782,7.0404506,7.980782,7.0404506,7.980782z"/>
</svg>
