<?xml version="1.0" standalone="no"?>
<!DOCTYPE svg PUBLIC "-//W3C//DTD SVG 20010904//EN"
 "http://www.w3.org/TR/2001/REC-SVG-20010904/DTD/svg10.dtd">
<svg version="1.0" xmlns="http://www.w3.org/2000/svg"
 width="700.000000pt" height="700.000000pt" viewBox="0 0 700.000000 700.000000"
 preserveAspectRatio="xMidYMid meet">
<metadata>
Created by potrace 1.14, written by Peter Selinger 2001-2017
</metadata>
<g transform="translate(0.000000,700.000000) scale(0.100000,-0.100000)"
fill="#000000" stroke="none">
<path d="M0 3500 l0 -3500 3500 0 3500 0 0 3500 0 3500 -3500 0 -3500 0 0
-3500z m3940 2415 c337 -48 634 -184 848 -389 283 -270 423 -633 426 -1106 1
-172 -11 -256 -56 -400 -64 -202 -180 -385 -347 -550 -170 -166 -364 -285
-586 -359 -200 -66 -252 -71 -727 -71 l-418 0 0 -155 0 -155 740 0 740 0 0
-230 0 -230 -740 0 -740 0 0 -590 0 -590 -330 0 -330 0 0 590 0 590 -210 0
-210 0 0 230 0 230 210 0 210 0 0 155 0 155 -210 0 -210 0 0 230 0 230 210 0
210 0 0 1215 0 1215 708 0 c572 0 727 -3 812 -15z"/>
<path d="M3080 4445 l0 -945 345 0 c387 0 445 7 571 65 259 119 469 369 546
650 18 67 22 106 22 245 0 146 -3 176 -26 261 -57 211 -190 401 -361 518 -76
51 -206 109 -298 131 -76 18 -118 20 -441 20 l-358 0 0 -945z"/>
</g>
</svg>
