<?xml version="1.0" encoding="utf-8"?>
<!-- Generator: Adobe Illustrator 25.3.1, SVG Export Plug-In . SVG Version: 6.00 Build 0)  -->
<svg version="1.1" id="Layer_1" xmlns="http://www.w3.org/2000/svg" xmlns:xlink="http://www.w3.org/1999/xlink" x="0px" y="0px"
	 viewBox="0 0 592 592" style="enable-background:new 0 0 592 592;" xml:space="preserve">
<style type="text/css">
	.st0{fill:#FFFFFF;}
	.st1{fill:#005D9E;}
	.st2{fill:#005DA1;}
</style>
<rect y="0" class="st0" width="592" height="592"/>
<g transform="translate(32,32)">
	<g transform="translate(128,0) scale(1.1428571428571,1.1428571428571)">
		<g transform="">
			<path class="st1" d="M14,14H0c0,0,4.4-9.2,0.6-14C0.6,0,14-0.2,14,14z"/>
		</g>
	</g>
	<g transform="translate(160,0) scale(1.1428571428571,1.1428571428571)">
		<g transform="">
			<path class="st1" d="M14,14H0c0,0,4.4-9.2,0.6-14C0.6,0,14-0.2,14,14z"/>
		</g>
	</g>
	<g transform="translate(192,0) scale(1.1428571428571,1.1428571428571)">
		<g transform="">
			<path class="st1" d="M14,0v14c0,0-9.2-4.4-14-0.6C0,13.4-0.2,0,14,0z"/>
		</g>
	</g>
	<g transform="translate(208,0) scale(0.16,0.16)">
		<g transform="">
			<rect x="0" y="0" class="st1" width="100" height="100"/>
		</g>
	</g>
	<g transform="translate(224,0) scale(1.1428571428571,1.1428571428571)">
		<g transform="">
			<path class="st1" d="M14,14H0V0l0,0h3.4C9.3,0,14,6.3,14,14z"/>
		</g>
	</g>
	<g transform="translate(288,0) scale(1.1428571428571,1.1428571428571)">
		<g transform="">
			<path class="st1" d="M14,0v14c0,0-9.2-4.4-14-0.6C0,13.4-0.2,0,14,0z"/>
		</g>
	</g>
	<g transform="translate(304,0) scale(1.1428571428571,1.1428571428571)">
		<g transform="">
			<path class="st1" d="M14,14H0V0l0,0h3.4C9.3,0,14,6.3,14,14z"/>
		</g>
	</g>
	<g transform="translate(336,0) scale(1.1428571428571,1.1428571428571)">
		<g transform="">
			<path class="st1" d="M14,14H0c0,0,4.4-9.2,0.6-14C0.6,0,14-0.2,14,14z"/>
		</g>
	</g>
	<g transform="translate(368,0) scale(1.1428571428571,1.1428571428571)">
		<g transform="">
			<path class="st1" d="M14,0v14c0,0-9.2-4.4-14-0.6C0,13.4-0.2,0,14,0z"/>
		</g>
	</g>
	<g transform="translate(384,0) scale(1.1428571428571,1.1428571428571)">
		<g transform="">
			<path class="st1" d="M14,14H0V0l0,0h3.4C9.3,0,14,6.3,14,14z"/>
		</g>
	</g>
	<g transform="translate(128,16) scale(0.16,0.16)">
		<g transform="">
			<rect x="0" y="0" class="st1" width="100" height="100"/>
		</g>
	</g>
	<g transform="translate(144,16) scale(0.16,0.16)">
		<g transform="">
			<rect x="0" y="0" class="st1" width="100" height="100"/>
		</g>
	</g>
	<g transform="translate(160,16) scale(0.16,0.16)">
		<g transform="">
			<rect x="0" y="0" class="st1" width="100" height="100"/>
		</g>
	</g>
	<g transform="translate(176,16) scale(1.1428571428571,1.1428571428571)">
		<g transform="">
			<path class="st1" d="M0,14V0c0,0,9.2,4.4,14,0.6C14,0.6,14.2,14,0,14z"/>
		</g>
	</g>
	<g transform="translate(208,16) scale(0.16,0.16)">
		<g transform="">
			<rect x="0" y="0" class="st1" width="100" height="100"/>
		</g>
	</g>
	<g transform="translate(224,16) scale(0.16,0.16)">
		<g transform="">
			<rect x="0" y="0" class="st1" width="100" height="100"/>
		</g>
	</g>
	<g transform="translate(240,16) scale(0.16,0.16)">
		<g transform="">
			<rect x="0" y="0" class="st1" width="100" height="100"/>
		</g>
	</g>
	<g transform="translate(256,16) scale(1.1428571428571,1.1428571428571)">
		<g transform="">
			<path class="st1" d="M0,14V0c0,0,9.2,4.4,14,0.6C14,0.6,14.2,14,0,14z"/>
		</g>
	</g>
	<g transform="translate(304,16) scale(1.1428571428571,1.1428571428571)">
		<g transform="">
			<path class="st1" d="M0,0h14c0,0-4.4,9.2-0.6,14C13.4,14,0,14.2,0,0z"/>
		</g>
	</g>
	<g transform="translate(336,16) scale(0.16,0.16)">
		<g transform="">
			<rect x="0" y="0" class="st1" width="100" height="100"/>
		</g>
	</g>
	<g transform="translate(384,16) scale(0.16,0.16)">
		<g transform="">
			<rect x="0" y="0" class="st1" width="100" height="100"/>
		</g>
	</g>
	<g transform="translate(128,32) scale(1.1428571428571,1.1428571428571)">
		<g transform="">
			<path class="st1" d="M0,0h14c0,0-4.4,9.2-0.6,14C13.4,14,0,14.2,0,0z"/>
		</g>
	</g>
	<g transform="translate(160,32) scale(1.1428571428571,1.1428571428571)">
		<g transform="">
			<path class="st1" d="M0,0h14c0,0-4.4,9.2-0.6,14C13.4,14,0,14.2,0,0z"/>
		</g>
	</g>
	<g transform="translate(192,32) scale(1.1428571428571,1.1428571428571)">
		<g transform="">
			<path class="st1" d="M14,0v14c0,0-9.2-4.4-14-0.6C0,13.4-0.2,0,14,0z"/>
		</g>
	</g>
	<g transform="translate(208,32) scale(1.1428571428571,1.1428571428571)">
		<g transform="">
			<path class="st1" d="M0,14V0h14l0,0v3.4C14,9.3,7.7,14,0,14z"/>
		</g>
	</g>
	<g transform="translate(272,32) scale(1.1428571428571,1.1428571428571)">
		<g transform="">
			<path class="st1" d="M14,0v14H0l0,0v-3.4C0,4.7,6.3,0,14,0z"/>
		</g>
	</g>
	<g transform="translate(288,32) scale(1.1428571428571,1.1428571428571)">
		<g transform="">
			<path class="st1" d="M14,14H0V0l0,0h3.4C9.3,0,14,6.3,14,14z"/>
		</g>
	</g>
	<g transform="translate(320,32) scale(1.1428571428571,1.1428571428571)">
		<g transform="">
			<path class="st1" d="M14,0v14c0,0-9.2-4.4-14-0.6C0,13.4-0.2,0,14,0z"/>
		</g>
	</g>
	<g transform="translate(336,32) scale(0.16,0.16)">
		<g transform="">
			<rect x="0" y="0" class="st1" width="100" height="100"/>
		</g>
	</g>
	<g transform="translate(352,32) scale(0.16,0.16)">
		<g transform="">
			<rect x="0" y="0" class="st1" width="100" height="100"/>
		</g>
	</g>
	<g transform="translate(368,32) scale(0.16,0.16)">
		<g transform="">
			<rect x="0" y="0" class="st1" width="100" height="100"/>
		</g>
	</g>
	<g transform="translate(384,32) scale(0.16,0.16)">
		<g transform="">
			<rect x="0" y="0" class="st1" width="100" height="100"/>
		</g>
	</g>
	<g transform="translate(256,48) scale(1.1428571428571,1.1428571428571)">
		<g transform="">
			<path class="st1" d="M14,0v14H0l0,0v-3.4C0,4.7,6.3,0,14,0z"/>
		</g>
	</g>
	<g transform="translate(272,48) scale(0.16,0.16)">
		<g transform="">
			<rect x="0" y="0" class="st1" width="100" height="100"/>
		</g>
	</g>
	<g transform="translate(288,48) scale(0.16,0.16)">
		<g transform="">
			<rect x="0" y="0" class="st1" width="100" height="100"/>
		</g>
	</g>
	<g transform="translate(304,48) scale(1.1428571428571,1.1428571428571)">
		<g transform="">
			<path class="st1" d="M0,14V0c0,0,9.2,4.4,14,0.6C14,0.6,14.2,14,0,14z"/>
		</g>
	</g>
	<g transform="translate(368,48) scale(0.16,0.16)">
		<g transform="">
			<rect x="0" y="0" class="st1" width="100" height="100"/>
		</g>
	</g>
	<g transform="translate(384,48) scale(0.16,0.16)">
		<g transform="">
			<rect x="0" y="0" class="st1" width="100" height="100"/>
		</g>
	</g>
	<g transform="translate(144,64) scale(0.032,0.032)">
		<g transform="">
			<path class="st1" d="M250,0c138.1,0,250,111.9,250,250S388.1,500,250,500S0,388.1,0,250S111.9,0,250,0z"/>
		</g>
	</g>
	<g transform="translate(176,64) scale(1.1428571428571,1.1428571428571)">
		<g transform="">
			<path class="st1" d="M14,14H0c0,0,4.4-9.2,0.6-14C0.6,0,14-0.2,14,14z"/>
		</g>
	</g>
	<g transform="translate(208,64) scale(1.1428571428571,1.1428571428571)">
		<g transform="">
			<path class="st1" d="M14,14H0c0,0,4.4-9.2,0.6-14C0.6,0,14-0.2,14,14z"/>
		</g>
	</g>
	<g transform="translate(240,64) scale(1.1428571428571,1.1428571428571)">
		<g transform="">
			<path class="st1" d="M14,0v14c0,0-9.2-4.4-14-0.6C0,13.4-0.2,0,14,0z"/>
		</g>
	</g>
	<g transform="translate(256,64) scale(0.16,0.16)">
		<g transform="">
			<rect x="0" y="0" class="st1" width="100" height="100"/>
		</g>
	</g>
	<g transform="translate(288,64) scale(1.1428571428571,1.1428571428571)">
		<g transform="">
			<path class="st1" d="M0,0h14c0,0-4.4,9.2-0.6,14C13.4,14,0,14.2,0,0z"/>
		</g>
	</g>
	<g transform="translate(320,64) scale(0.032,0.032)">
		<g transform="">
			<path class="st1" d="M250,0c138.1,0,250,111.9,250,250S388.1,500,250,500S0,388.1,0,250S111.9,0,250,0z"/>
		</g>
	</g>
	<g transform="translate(368,64) scale(1.1428571428571,1.1428571428571)">
		<g transform="">
			<path class="st1" d="M0,0h14v14l0,0h-3.4C4.7,14,0,7.7,0,0z"/>
		</g>
	</g>
	<g transform="translate(384,64) scale(0.16,0.16)">
		<g transform="">
			<rect x="0" y="0" class="st1" width="100" height="100"/>
		</g>
	</g>
	<g transform="translate(128,80) scale(1.1428571428571,1.1428571428571)">
		<g transform="">
			<path class="st1" d="M14,14H0c0,0,4.4-9.2,0.6-14C0.6,0,14-0.2,14,14z"/>
		</g>
	</g>
	<g transform="translate(176,80) scale(1.1428571428571,1.1428571428571)">
		<g transform="">
			<path class="st1" d="M0,0h14v14l0,0h-3.4C4.7,14,0,7.7,0,0z"/>
		</g>
	</g>
	<g transform="translate(192,80) scale(0.16,0.16)">
		<g transform="">
			<rect x="0" y="0" class="st1" width="100" height="100"/>
		</g>
	</g>
	<g transform="translate(208,80) scale(0.16,0.16)">
		<g transform="">
			<rect x="0" y="0" class="st1" width="100" height="100"/>
		</g>
	</g>
	<g transform="translate(224,80) scale(1.1428571428571,1.1428571428571)">
		<g transform="">
			<path class="st1" d="M14,14H0V0l0,0h3.4C9.3,0,14,6.3,14,14z"/>
		</g>
	</g>
	<g transform="translate(256,80) scale(0.16,0.16)">
		<g transform="">
			<rect x="0" y="0" class="st1" width="100" height="100"/>
		</g>
	</g>
	<g transform="translate(272,80) scale(1.1428571428571,1.1428571428571)">
		<g transform="">
			<path class="st1" d="M0,14V0c0,0,9.2,4.4,14,0.6C14,0.6,14.2,14,0,14z"/>
		</g>
	</g>
	<g transform="translate(304,80) scale(0.032,0.032)">
		<g transform="">
			<path class="st1" d="M250,0c138.1,0,250,111.9,250,250S388.1,500,250,500S0,388.1,0,250S111.9,0,250,0z"/>
		</g>
	</g>
	<g transform="translate(336,80) scale(0.032,0.032)">
		<g transform="">
			<path class="st1" d="M250,0c138.1,0,250,111.9,250,250S388.1,500,250,500S0,388.1,0,250S111.9,0,250,0z"/>
		</g>
	</g>
	<g transform="translate(384,80) scale(0.16,0.16)">
		<g transform="">
			<rect x="0" y="0" class="st1" width="100" height="100"/>
		</g>
	</g>
	<g transform="translate(128,96) scale(0.16,0.16)">
		<g transform="">
			<rect x="0" y="0" class="st1" width="100" height="100"/>
		</g>
	</g>
	<g transform="translate(160,96) scale(0.032,0.032)">
		<g transform="">
			<path class="st1" d="M250,0c138.1,0,250,111.9,250,250S388.1,500,250,500S0,388.1,0,250S111.9,0,250,0z"/>
		</g>
	</g>
	<g transform="translate(192,96) scale(1.1428571428571,1.1428571428571)">
		<g transform="">
			<path class="st1" d="M0,0h14c0,0-4.4,9.2-0.6,14C13.4,14,0,14.2,0,0z"/>
		</g>
	</g>
	<g transform="translate(224,96) scale(1.1428571428571,1.1428571428571)">
		<g transform="">
			<path class="st1" d="M0,0h14c0,0-4.4,9.2-0.6,14C13.4,14,0,14.2,0,0z"/>
		</g>
	</g>
	<g transform="translate(256,96) scale(1.1428571428571,1.1428571428571)">
		<g transform="">
			<path class="st1" d="M0,0h14c0,0-4.4,9.2-0.6,14C13.4,14,0,14.2,0,0z"/>
		</g>
	</g>
	<g transform="translate(288,96) scale(0.032,0.032)">
		<g transform="">
			<path class="st1" d="M250,0c138.1,0,250,111.9,250,250S388.1,500,250,500S0,388.1,0,250S111.9,0,250,0z"/>
		</g>
	</g>
	<g transform="translate(320,96) scale(1.1428571428571,1.1428571428571)">
		<g transform="">
			<path class="st1" d="M14,14H0c0,0,4.4-9.2,0.6-14C0.6,0,14-0.2,14,14z"/>
		</g>
	</g>
	<g transform="translate(352,96) scale(1.1428571428571,1.1428571428571)">
		<g transform="">
			<path class="st1" d="M14,14H0c0,0,4.4-9.2,0.6-14C0.6,0,14-0.2,14,14z"/>
		</g>
	</g>
	<g transform="translate(384,96) scale(0.16,0.16)">
		<g transform="">
			<rect x="0" y="0" class="st1" width="100" height="100"/>
		</g>
	</g>
	<g transform="translate(128,112) scale(0.16,0.16)">
		<g transform="">
			<rect x="0" y="0" class="st1" width="100" height="100"/>
		</g>
	</g>
	<g transform="translate(176,112) scale(0.032,0.032)">
		<g transform="">
			<path class="st1" d="M250,0c138.1,0,250,111.9,250,250S388.1,500,250,500S0,388.1,0,250S111.9,0,250,0z"/>
		</g>
	</g>
	<g transform="translate(208,112) scale(0.032,0.032)">
		<g transform="">
			<path class="st1" d="M250,0c138.1,0,250,111.9,250,250S388.1,500,250,500S0,388.1,0,250S111.9,0,250,0z"/>
		</g>
	</g>
	<g transform="translate(272,112) scale(1.1428571428571,1.1428571428571)">
		<g transform="">
			<path class="st1" d="M14,14H0c0,0,4.4-9.2,0.6-14C0.6,0,14-0.2,14,14z"/>
		</g>
	</g>
	<g transform="translate(304,112) scale(1.1428571428571,1.1428571428571)">
		<g transform="">
			<path class="st1" d="M14,0v14c0,0-9.2-4.4-14-0.6C0,13.4-0.2,0,14,0z"/>
		</g>
	</g>
	<g transform="translate(320,112) scale(0.16,0.16)">
		<g transform="">
			<rect x="0" y="0" class="st1" width="100" height="100"/>
		</g>
	</g>
	<g transform="translate(336,112) scale(0.16,0.16)">
		<g transform="">
			<rect x="0" y="0" class="st1" width="100" height="100"/>
		</g>
	</g>
	<g transform="translate(352,112) scale(0.16,0.16)">
		<g transform="">
			<rect x="0" y="0" class="st1" width="100" height="100"/>
		</g>
	</g>
	<g transform="translate(368,112) scale(0.16,0.16)">
		<g transform="">
			<rect x="0" y="0" class="st1" width="100" height="100"/>
		</g>
	</g>
	<g transform="translate(384,112) scale(0.16,0.16)">
		<g transform="">
			<rect x="0" y="0" class="st1" width="100" height="100"/>
		</g>
	</g>
	<g transform="translate(32,128) scale(1.1428571428571,1.1428571428571)">
		<g transform="">
			<path class="st1" d="M14,0v14c0,0-9.2-4.4-14-0.6C0,13.4-0.2,0,14,0z"/>
		</g>
	</g>
	<g transform="translate(48,128) scale(0.16,0.16)">
		<g transform="">
			<rect x="0" y="0" class="st1" width="100" height="100"/>
		</g>
	</g>
	<g transform="translate(64,128) scale(1.1428571428571,1.1428571428571)">
		<g transform="">
			<path class="st1" d="M14,14H0V0l0,0h3.4C9.3,0,14,6.3,14,14z"/>
		</g>
	</g>
	<g transform="translate(96,128) scale(0.032,0.032)">
		<g transform="">
			<path class="st1" d="M250,0c138.1,0,250,111.9,250,250S388.1,500,250,500S0,388.1,0,250S111.9,0,250,0z"/>
		</g>
	</g>
	<g transform="translate(128,128) scale(0.16,0.16)">
		<g transform="">
			<rect x="0" y="0" class="st1" width="100" height="100"/>
		</g>
	</g>
	<g transform="translate(144,128) scale(1.1428571428571,1.1428571428571)">
		<g transform="">
			<path class="st1" d="M0,14V0c0,0,9.2,4.4,14,0.6C14,0.6,14.2,14,0,14z"/>
		</g>
	</g>
	<g transform="translate(192,128) scale(1.1428571428571,1.1428571428571)">
		<g transform="">
			<path class="st1" d="M14,14H0c0,0,4.4-9.2,0.6-14C0.6,0,14-0.2,14,14z"/>
		</g>
	</g>
	<g transform="translate(224,128) scale(1.1428571428571,1.1428571428571)">
		<g transform="">
			<path class="st1" d="M14,14H0c0,0,4.4-9.2,0.6-14C0.6,0,14-0.2,14,14z"/>
		</g>
	</g>
	<g transform="translate(256,128) scale(1.1428571428571,1.1428571428571)">
		<g transform="">
			<path class="st1" d="M14,0v14c0,0-9.2-4.4-14-0.6C0,13.4-0.2,0,14,0z"/>
		</g>
	</g>
	<g transform="translate(272,128) scale(1.1428571428571,1.1428571428571)">
		<g transform="">
			<path class="st1" d="M0,14V0h14l0,0v3.4C14,9.3,7.7,14,0,14z"/>
		</g>
	</g>
	<g transform="translate(320,128) scale(0.16,0.16)">
		<g transform="">
			<rect x="0" y="0" class="st1" width="100" height="100"/>
		</g>
	</g>
	<g transform="translate(352,128) scale(1.1428571428571,1.1428571428571)">
		<g transform="">
			<path class="st1" d="M0,0h14v14l0,0h-3.4C4.7,14,0,7.7,0,0z"/>
		</g>
	</g>
	<g transform="translate(368,128) scale(0.16,0.16)">
		<g transform="">
			<rect x="0" y="0" class="st1" width="100" height="100"/>
		</g>
	</g>
	<g transform="translate(384,128) scale(0.16,0.16)">
		<g transform="">
			<rect x="0" y="0" class="st1" width="100" height="100"/>
		</g>
	</g>
	<g transform="translate(400,128) scale(0.16,0.16)">
		<g transform="">
			<rect x="0" y="0" class="st1" width="100" height="100"/>
		</g>
	</g>
	<g transform="translate(416,128) scale(0.16,0.16)">
		<g transform="">
			<rect x="0" y="0" class="st1" width="100" height="100"/>
		</g>
	</g>
	<g transform="translate(432,128) scale(1.1428571428571,1.1428571428571)">
		<g transform="">
			<path class="st1" d="M0,14V0c0,0,9.2,4.4,14,0.6C14,0.6,14.2,14,0,14z"/>
		</g>
	</g>
	<g transform="translate(480,128) scale(1.1428571428571,1.1428571428571)">
		<g transform="">
			<path class="st1" d="M14,0v14c0,0-9.2-4.4-14-0.6C0,13.4-0.2,0,14,0z"/>
		</g>
	</g>
	<g transform="translate(496,128) scale(0.16,0.16)">
		<g transform="">
			<rect x="0" y="0" class="st1" width="100" height="100"/>
		</g>
	</g>
	<g transform="translate(512,128) scale(1.1428571428571,1.1428571428571)">
		<g transform="">
			<path class="st1" d="M14,14H0V0l0,0h3.4C9.3,0,14,6.3,14,14z"/>
		</g>
	</g>
	<g transform="translate(16,144) scale(1.1428571428571,1.1428571428571)">
		<g transform="">
			<path class="st1" d="M14,14H0c0,0,4.4-9.2,0.6-14C0.6,0,14-0.2,14,14z"/>
		</g>
	</g>
	<g transform="translate(48,144) scale(0.16,0.16)">
		<g transform="">
			<rect x="0" y="0" class="st1" width="100" height="100"/>
		</g>
	</g>
	<g transform="translate(64,144) scale(1.1428571428571,1.1428571428571)">
		<g transform="">
			<path class="st1" d="M0,14V0h14l0,0v3.4C14,9.3,7.7,14,0,14z"/>
		</g>
	</g>
	<g transform="translate(112,144) scale(1.1428571428571,1.1428571428571)">
		<g transform="">
			<path class="st1" d="M14,0v14c0,0-9.2-4.4-14-0.6C0,13.4-0.2,0,14,0z"/>
		</g>
	</g>
	<g transform="translate(128,144) scale(1.1428571428571,1.1428571428571)">
		<g transform="">
			<path class="st1" d="M0,14V0h14l0,0v3.4C14,9.3,7.7,14,0,14z"/>
		</g>
	</g>
	<g transform="translate(192,144) scale(1.1428571428571,1.1428571428571)">
		<g transform="">
			<path class="st1" d="M0,0h14v14l0,0h-3.4C4.7,14,0,7.7,0,0z"/>
		</g>
	</g>
	<g transform="translate(208,144) scale(0.16,0.16)">
		<g transform="">
			<rect x="0" y="0" class="st1" width="100" height="100"/>
		</g>
	</g>
	<g transform="translate(224,144) scale(0.16,0.16)">
		<g transform="">
			<rect x="0" y="0" class="st1" width="100" height="100"/>
		</g>
	</g>
	<g transform="translate(240,144) scale(1.1428571428571,1.1428571428571)">
		<g transform="">
			<path class="st1" d="M14,14H0V0l0,0h3.4C9.3,0,14,6.3,14,14z"/>
		</g>
	</g>
	<g transform="translate(288,144) scale(1.1428571428571,1.1428571428571)">
		<g transform="">
			<path class="st1" d="M14,0v14H0l0,0v-3.4C0,4.7,6.3,0,14,0z"/>
		</g>
	</g>
	<g transform="translate(304,144) scale(0.16,0.16)">
		<g transform="">
			<rect x="0" y="0" class="st1" width="100" height="100"/>
		</g>
	</g>
	<g transform="translate(320,144) scale(0.16,0.16)">
		<g transform="">
			<rect x="0" y="0" class="st1" width="100" height="100"/>
		</g>
	</g>
	<g transform="translate(368,144) scale(1.1428571428571,1.1428571428571)">
		<g transform="">
			<path class="st1" d="M0,0h14c0,0-4.4,9.2-0.6,14C13.4,14,0,14.2,0,0z"/>
		</g>
	</g>
	<g transform="translate(400,144) scale(1.1428571428571,1.1428571428571)">
		<g transform="">
			<path class="st1" d="M0,0h14v14l0,0h-3.4C4.7,14,0,7.7,0,0z"/>
		</g>
	</g>
	<g transform="translate(416,144) scale(1.1428571428571,1.1428571428571)">
		<g transform="">
			<path class="st1" d="M0,14V0h14l0,0v3.4C14,9.3,7.7,14,0,14z"/>
		</g>
	</g>
	<g transform="translate(512,144) scale(1.1428571428571,1.1428571428571)">
		<g transform="">
			<path class="st1" d="M0,0h14c0,0-4.4,9.2-0.6,14C13.4,14,0,14.2,0,0z"/>
		</g>
	</g>
	<g transform="translate(16,160) scale(1.1428571428571,1.1428571428571)">
		<g transform="">
			<path class="st1" d="M0,0h14v14l0,0h-3.4C4.7,14,0,7.7,0,0z"/>
		</g>
	</g>
	<g transform="translate(32,160) scale(0.16,0.16)">
		<g transform="">
			<rect x="0" y="0" class="st1" width="100" height="100"/>
		</g>
	</g>
	<g transform="translate(48,160) scale(1.1428571428571,1.1428571428571)">
		<g transform="">
			<path class="st1" d="M0,14V0h14l0,0v3.4C14,9.3,7.7,14,0,14z"/>
		</g>
	</g>
	<g transform="translate(96,160) scale(0.032,0.032)">
		<g transform="">
			<path class="st1" d="M250,0c138.1,0,250,111.9,250,250S388.1,500,250,500S0,388.1,0,250S111.9,0,250,0z"/>
		</g>
	</g>
	<g transform="translate(208,160) scale(1.1428571428571,1.1428571428571)">
		<g transform="">
			<path class="st1" d="M0,0h14c0,0-4.4,9.2-0.6,14C13.4,14,0,14.2,0,0z"/>
		</g>
	</g>
	<g transform="translate(240,160) scale(0.16,0.16)">
		<g transform="">
			<rect x="0" y="0" class="st1" width="100" height="100"/>
		</g>
	</g>
	<g transform="translate(256,160) scale(0.16,0.16)">
		<g transform="">
			<rect x="0" y="0" class="st1" width="100" height="100"/>
		</g>
	</g>
	<g transform="translate(272,160) scale(0.16,0.16)">
		<g transform="">
			<rect x="0" y="0" class="st1" width="100" height="100"/>
		</g>
	</g>
	<g transform="translate(288,160) scale(0.16,0.16)">
		<g transform="">
			<rect x="0" y="0" class="st1" width="100" height="100"/>
		</g>
	</g>
	<g transform="translate(320,160) scale(0.16,0.16)">
		<g transform="">
			<rect x="0" y="0" class="st1" width="100" height="100"/>
		</g>
	</g>
	<g transform="translate(352,160) scale(1.1428571428571,1.1428571428571)">
		<g transform="">
			<path class="st1" d="M14,14H0c0,0,4.4-9.2,0.6-14C0.6,0,14-0.2,14,14z"/>
		</g>
	</g>
	<g transform="translate(384,160) scale(0.032,0.032)">
		<g transform="">
			<path class="st1" d="M250,0c138.1,0,250,111.9,250,250S388.1,500,250,500S0,388.1,0,250S111.9,0,250,0z"/>
		</g>
	</g>
	<g transform="translate(432,160) scale(0.032,0.032)">
		<g transform="">
			<path class="st1" d="M250,0c138.1,0,250,111.9,250,250S388.1,500,250,500S0,388.1,0,250S111.9,0,250,0z"/>
		</g>
	</g>
	<g transform="translate(464,160) scale(1.1428571428571,1.1428571428571)">
		<g transform="">
			<path class="st1" d="M14,0v14H0l0,0v-3.4C0,4.7,6.3,0,14,0z"/>
		</g>
	</g>
	<g transform="translate(480,160) scale(0.16,0.16)">
		<g transform="">
			<rect x="0" y="0" class="st1" width="100" height="100"/>
		</g>
	</g>
	<g transform="translate(496,160) scale(1.1428571428571,1.1428571428571)">
		<g transform="">
			<path class="st1" d="M14,14H0V0l0,0h3.4C9.3,0,14,6.3,14,14z"/>
		</g>
	</g>
	<g transform="translate(112,176) scale(0.032,0.032)">
		<g transform="">
			<path class="st1" d="M250,0c138.1,0,250,111.9,250,250S388.1,500,250,500S0,388.1,0,250S111.9,0,250,0z"/>
		</g>
	</g>
	<g transform="translate(144,176) scale(0.032,0.032)">
		<g transform="">
			<path class="st1" d="M250,0c138.1,0,250,111.9,250,250S388.1,500,250,500S0,388.1,0,250S111.9,0,250,0z"/>
		</g>
	</g>
	<g transform="translate(192,176) scale(1.1428571428571,1.1428571428571)">
		<g transform="">
			<path class="st1" d="M14,14H0c0,0,4.4-9.2,0.6-14C0.6,0,14-0.2,14,14z"/>
		</g>
	</g>
	<g transform="translate(224,176) scale(1.1428571428571,1.1428571428571)">
		<g transform="">
			<path class="st1" d="M14,0v14H0l0,0v-3.4C0,4.7,6.3,0,14,0z"/>
		</g>
	</g>
	<g transform="translate(240,176) scale(0.16,0.16)">
		<g transform="">
			<rect x="0" y="0" class="st1" width="100" height="100"/>
		</g>
	</g>
	<g transform="translate(272,176) scale(0.16,0.16)">
		<g transform="">
			<rect x="0" y="0" class="st1" width="100" height="100"/>
		</g>
	</g>
	<g transform="translate(288,176) scale(0.16,0.16)">
		<g transform="">
			<rect x="0" y="0" class="st1" width="100" height="100"/>
		</g>
	</g>
	<g transform="translate(304,176) scale(0.16,0.16)">
		<g transform="">
			<rect x="0" y="0" class="st1" width="100" height="100"/>
		</g>
	</g>
	<g transform="translate(320,176) scale(0.16,0.16)">
		<g transform="">
			<rect x="0" y="0" class="st1" width="100" height="100"/>
		</g>
	</g>
	<g transform="translate(336,176) scale(0.16,0.16)">
		<g transform="">
			<rect x="0" y="0" class="st1" width="100" height="100"/>
		</g>
	</g>
	<g transform="translate(352,176) scale(0.16,0.16)">
		<g transform="">
			<rect x="0" y="0" class="st1" width="100" height="100"/>
		</g>
	</g>
	<g transform="translate(368,176) scale(1.1428571428571,1.1428571428571)">
		<g transform="">
			<path class="st1" d="M14,14H0V0l0,0h3.4C9.3,0,14,6.3,14,14z"/>
		</g>
	</g>
	<g transform="translate(464,176) scale(0.16,0.16)">
		<g transform="">
			<rect x="0" y="0" class="st1" width="100" height="100"/>
		</g>
	</g>
	<g transform="translate(480,176) scale(0.16,0.16)">
		<g transform="">
			<rect x="0" y="0" class="st1" width="100" height="100"/>
		</g>
	</g>
	<g transform="translate(496,176) scale(1.1428571428571,1.1428571428571)">
		<g transform="">
			<path class="st1" d="M0,14V0h14l0,0v3.4C14,9.3,7.7,14,0,14z"/>
		</g>
	</g>
	<g transform="translate(0,192) scale(1.1428571428571,1.1428571428571)">
		<g transform="">
			<path class="st1" d="M14,0v14H0l0,0v-3.4C0,4.7,6.3,0,14,0z"/>
		</g>
	</g>
	<g transform="translate(16,192) scale(0.16,0.16)">
		<g transform="">
			<rect x="0" y="0" class="st1" width="100" height="100"/>
		</g>
	</g>
	<g transform="translate(32,192) scale(1.1428571428571,1.1428571428571)">
		<g transform="">
			<path class="st1" d="M14,14H0V0l0,0h3.4C9.3,0,14,6.3,14,14z"/>
		</g>
	</g>
	<g transform="translate(64,192) scale(1.1428571428571,1.1428571428571)">
		<g transform="">
			<path class="st1" d="M14,0v14H0l0,0v-3.4C0,4.7,6.3,0,14,0z"/>
		</g>
	</g>
	<g transform="translate(80,192) scale(0.16,0.16)">
		<g transform="">
			<rect x="0" y="0" class="st1" width="100" height="100"/>
		</g>
	</g>
	<g transform="translate(96,192) scale(1.1428571428571,1.1428571428571)">
		<g transform="">
			<path class="st1" d="M0,14V0c0,0,9.2,4.4,14,0.6C14,0.6,14.2,14,0,14z"/>
		</g>
	</g>
	<g transform="translate(128,192) scale(0.032,0.032)">
		<g transform="">
			<path class="st1" d="M250,0c138.1,0,250,111.9,250,250S388.1,500,250,500S0,388.1,0,250S111.9,0,250,0z"/>
		</g>
	</g>
	<g transform="translate(176,192) scale(1.1428571428571,1.1428571428571)">
		<g transform="">
			<path class="st1" d="M14,0v14H0l0,0v-3.4C0,4.7,6.3,0,14,0z"/>
		</g>
	</g>
	<g transform="translate(192,192) scale(0.16,0.16)">
		<g transform="">
			<rect x="0" y="0" class="st1" width="100" height="100"/>
		</g>
	</g>
	<g transform="translate(208,192) scale(0.16,0.16)">
		<g transform="">
			<rect x="0" y="0" class="st1" width="100" height="100"/>
		</g>
	</g>
	<g transform="translate(224,192) scale(0.16,0.16)">
		<g transform="">
			<rect x="0" y="0" class="st1" width="100" height="100"/>
		</g>
	</g>
	<g transform="translate(240,192) scale(1.1428571428571,1.1428571428571)">
		<g transform="">
			<path class="st1" d="M0,14V0h14l0,0v3.4C14,9.3,7.7,14,0,14z"/>
		</g>
	</g>
	<g transform="translate(272,192) scale(1.1428571428571,1.1428571428571)">
		<g transform="">
			<path class="st1" d="M0,0h14v14l0,0h-3.4C4.7,14,0,7.7,0,0z"/>
		</g>
	</g>
	<g transform="translate(288,192) scale(1.1428571428571,1.1428571428571)">
		<g transform="">
			<path class="st1" d="M0,14V0h14l0,0v3.4C14,9.3,7.7,14,0,14z"/>
		</g>
	</g>
	<g transform="translate(320,192) scale(1.1428571428571,1.1428571428571)">
		<g transform="">
			<path class="st1" d="M0,0h14v14l0,0h-3.4C4.7,14,0,7.7,0,0z"/>
		</g>
	</g>
	<g transform="translate(336,192) scale(1.1428571428571,1.1428571428571)">
		<g transform="">
			<path class="st1" d="M0,14V0h14l0,0v3.4C14,9.3,7.7,14,0,14z"/>
		</g>
	</g>
	<g transform="translate(368,192) scale(0.16,0.16)">
		<g transform="">
			<rect x="0" y="0" class="st1" width="100" height="100"/>
		</g>
	</g>
	<g transform="translate(384,192) scale(0.16,0.16)">
		<g transform="">
			<rect x="0" y="0" class="st1" width="100" height="100"/>
		</g>
	</g>
	<g transform="translate(400,192) scale(1.1428571428571,1.1428571428571)">
		<g transform="">
			<path class="st1" d="M0,14V0c0,0,9.2,4.4,14,0.6C14,0.6,14.2,14,0,14z"/>
		</g>
	</g>
	<g transform="translate(432,192) scale(0.032,0.032)">
		<g transform="">
			<path class="st1" d="M250,0c138.1,0,250,111.9,250,250S388.1,500,250,500S0,388.1,0,250S111.9,0,250,0z"/>
		</g>
	</g>
	<g transform="translate(464,192) scale(1.1428571428571,1.1428571428571)">
		<g transform="">
			<path class="st1" d="M0,0h14c0,0-4.4,9.2-0.6,14C13.4,14,0,14.2,0,0z"/>
		</g>
	</g>
	<g transform="translate(512,192) scale(1.1428571428571,1.1428571428571)">
		<g transform="">
			<path class="st1" d="M14,14H0c0,0,4.4-9.2,0.6-14C0.6,0,14-0.2,14,14z"/>
		</g>
	</g>
	<g transform="translate(0,208) scale(1.1428571428571,1.1428571428571)">
		<g transform="">
			<path class="st1" d="M0,0h14v14l0,0h-3.4C4.7,14,0,7.7,0,0z"/>
		</g>
	</g>
	<g transform="translate(16,208) scale(0.16,0.16)">
		<g transform="">
			<rect x="0" y="0" class="st1" width="100" height="100"/>
		</g>
	</g>
	<g transform="translate(32,208) scale(1.1428571428571,1.1428571428571)">
		<g transform="">
			<path class="st1" d="M0,14V0h14l0,0v3.4C14,9.3,7.7,14,0,14z"/>
		</g>
	</g>
	<g transform="translate(64,208) scale(0.16,0.16)">
		<g transform="">
			<rect x="0" y="0" class="st1" width="100" height="100"/>
		</g>
	</g>
	<g transform="translate(112,208) scale(1.1428571428571,1.1428571428571)">
		<g transform="">
			<path class="st1" d="M14,14H0c0,0,4.4-9.2,0.6-14C0.6,0,14-0.2,14,14z"/>
		</g>
	</g>
	<g transform="translate(144,208) scale(1.1428571428571,1.1428571428571)">
		<g transform="">
			<path class="st1" d="M14,14H0c0,0,4.4-9.2,0.6-14C0.6,0,14-0.2,14,14z"/>
		</g>
	</g>
	<g transform="translate(176,208) scale(1.1428571428571,1.1428571428571)">
		<g transform="">
			<path class="st1" d="M0,0h14c0,0-4.4,9.2-0.6,14C13.4,14,0,14.2,0,0z"/>
		</g>
	</g>
	<g transform="translate(224,208) scale(0.16,0.16)">
		<g transform="">
			<rect x="0" y="0" class="st1" width="100" height="100"/>
		</g>
	</g>
	<g transform="translate(368,208) scale(1.1428571428571,1.1428571428571)">
		<g transform="">
			<path class="st1" d="M0,0h14c0,0-4.4,9.2-0.6,14C13.4,14,0,14.2,0,0z"/>
		</g>
	</g>
	<g transform="translate(416,208) scale(0.032,0.032)">
		<g transform="">
			<path class="st1" d="M250,0c138.1,0,250,111.9,250,250S388.1,500,250,500S0,388.1,0,250S111.9,0,250,0z"/>
		</g>
	</g>
	<g transform="translate(512,208) scale(1.1428571428571,1.1428571428571)">
		<g transform="">
			<path class="st1" d="M0,0h14c0,0-4.4,9.2-0.6,14C13.4,14,0,14.2,0,0z"/>
		</g>
	</g>
	<g transform="translate(16,224) scale(0.16,0.16)">
		<g transform="">
			<rect x="0" y="0" class="st1" width="100" height="100"/>
		</g>
	</g>
	<g transform="translate(48,224) scale(1.1428571428571,1.1428571428571)">
		<g transform="">
			<path class="st1" d="M14,0v14H0l0,0v-3.4C0,4.7,6.3,0,14,0z"/>
		</g>
	</g>
	<g transform="translate(64,224) scale(0.16,0.16)">
		<g transform="">
			<rect x="0" y="0" class="st1" width="100" height="100"/>
		</g>
	</g>
	<g transform="translate(96,224) scale(1.1428571428571,1.1428571428571)">
		<g transform="">
			<path class="st1" d="M14,0v14c0,0-9.2-4.4-14-0.6C0,13.4-0.2,0,14,0z"/>
		</g>
	</g>
	<g transform="translate(112,224) scale(0.16,0.16)">
		<g transform="">
			<rect x="0" y="0" class="st1" width="100" height="100"/>
		</g>
	</g>
	<g transform="translate(144,224) scale(0.16,0.16)">
		<g transform="">
			<rect x="0" y="0" class="st1" width="100" height="100"/>
		</g>
	</g>
	<g transform="translate(208,224) scale(1.1428571428571,1.1428571428571)">
		<g transform="">
			<path class="st1" d="M14,0v14c0,0-9.2-4.4-14-0.6C0,13.4-0.2,0,14,0z"/>
		</g>
	</g>
	<g transform="translate(224,224) scale(0.16,0.16)">
		<g transform="">
			<rect x="0" y="0" class="st1" width="100" height="100"/>
		</g>
	</g>
	<g transform="translate(240,224) scale(0.16,0.16)">
		<g transform="">
			<rect x="0" y="0" class="st1" width="100" height="100"/>
		</g>
	</g>
	<g transform="translate(256,224) scale(1.1428571428571,1.1428571428571)">
		<g transform="">
			<path class="st1" d="M14,14H0V0l0,0h3.4C9.3,0,14,6.3,14,14z"/>
		</g>
	</g>
	<g transform="translate(288,224) scale(1.1428571428571,1.1428571428571)">
		<g transform="">
			<path class="st1" d="M14,14H0c0,0,4.4-9.2,0.6-14C0.6,0,14-0.2,14,14z"/>
		</g>
	</g>
	<g transform="translate(320,224) scale(0.032,0.032)">
		<g transform="">
			<path class="st1" d="M250,0c138.1,0,250,111.9,250,250S388.1,500,250,500S0,388.1,0,250S111.9,0,250,0z"/>
		</g>
	</g>
	<g transform="translate(352,224) scale(1.1428571428571,1.1428571428571)">
		<g transform="">
			<path class="st1" d="M14,14H0c0,0,4.4-9.2,0.6-14C0.6,0,14-0.2,14,14z"/>
		</g>
	</g>
	<g transform="translate(400,224) scale(1.1428571428571,1.1428571428571)">
		<g transform="">
			<path class="st1" d="M14,14H0c0,0,4.4-9.2,0.6-14C0.6,0,14-0.2,14,14z"/>
		</g>
	</g>
	<g transform="translate(448,224) scale(1.1428571428571,1.1428571428571)">
		<g transform="">
			<path class="st1" d="M14,14H0c0,0,4.4-9.2,0.6-14C0.6,0,14-0.2,14,14z"/>
		</g>
	</g>
	<g transform="translate(496,224) scale(1.1428571428571,1.1428571428571)">
		<g transform="">
			<path class="st1" d="M14,14H0c0,0,4.4-9.2,0.6-14C0.6,0,14-0.2,14,14z"/>
		</g>
	</g>
	<g transform="translate(0,240) scale(1.1428571428571,1.1428571428571)">
		<g transform="">
			<path class="st1" d="M14,0v14c0,0-9.2-4.4-14-0.6C0,13.4-0.2,0,14,0z"/>
		</g>
	</g>
	<g transform="translate(16,240) scale(0.16,0.16)">
		<g transform="">
			<rect x="0" y="0" class="st1" width="100" height="100"/>
		</g>
	</g>
	<g transform="translate(48,240) scale(1.1428571428571,1.1428571428571)">
		<g transform="">
			<path class="st1" d="M0,0h14v14l0,0h-3.4C4.7,14,0,7.7,0,0z"/>
		</g>
	</g>
	<g transform="translate(64,240) scale(1.1428571428571,1.1428571428571)">
		<g transform="">
			<path class="st1" d="M0,14V0h14l0,0v3.4C14,9.3,7.7,14,0,14z"/>
		</g>
	</g>
	<g transform="translate(112,240) scale(0.16,0.16)">
		<g transform="">
			<rect x="0" y="0" class="st1" width="100" height="100"/>
		</g>
	</g>
	<g transform="translate(144,240) scale(1.1428571428571,1.1428571428571)">
		<g transform="">
			<path class="st1" d="M0,0h14v14l0,0h-3.4C4.7,14,0,7.7,0,0z"/>
		</g>
	</g>
	<g transform="translate(160,240) scale(0.16,0.16)">
		<g transform="">
			<rect x="0" y="0" class="st1" width="100" height="100"/>
		</g>
	</g>
	<g transform="translate(176,240) scale(1.1428571428571,1.1428571428571)">
		<g transform="">
			<path class="st1" d="M0,14V0c0,0,9.2,4.4,14,0.6C14,0.6,14.2,14,0,14z"/>
		</g>
	</g>
	<g transform="translate(224,240) scale(0.16,0.16)">
		<g transform="">
			<rect x="0" y="0" class="st1" width="100" height="100"/>
		</g>
	</g>
	<g transform="translate(256,240) scale(0.16,0.16)">
		<g transform="">
			<rect x="0" y="0" class="st1" width="100" height="100"/>
		</g>
	</g>
	<g transform="translate(272,240) scale(0.16,0.16)">
		<g transform="">
			<rect x="0" y="0" class="st1" width="100" height="100"/>
		</g>
	</g>
	<g transform="translate(288,240) scale(0.16,0.16)">
		<g transform="">
			<rect x="0" y="0" class="st1" width="100" height="100"/>
		</g>
	</g>
	<g transform="translate(304,240) scale(1.1428571428571,1.1428571428571)">
		<g transform="">
			<path class="st1" d="M14,14H0V0l0,0h3.4C9.3,0,14,6.3,14,14z"/>
		</g>
	</g>
	<g transform="translate(336,240) scale(1.1428571428571,1.1428571428571)">
		<g transform="">
			<path class="st1" d="M14,0v14c0,0-9.2-4.4-14-0.6C0,13.4-0.2,0,14,0z"/>
		</g>
	</g>
	<g transform="translate(352,240) scale(0.16,0.16)">
		<g transform="">
			<rect x="0" y="0" class="st1" width="100" height="100"/>
		</g>
	</g>
	<g transform="translate(368,240) scale(0.16,0.16)">
		<g transform="">
			<rect x="0" y="0" class="st1" width="100" height="100"/>
		</g>
	</g>
	<g transform="translate(384,240) scale(0.16,0.16)">
		<g transform="">
			<rect x="0" y="0" class="st1" width="100" height="100"/>
		</g>
	</g>
	<g transform="translate(400,240) scale(0.16,0.16)">
		<g transform="">
			<rect x="0" y="0" class="st1" width="100" height="100"/>
		</g>
	</g>
	<g transform="translate(448,240) scale(0.16,0.16)">
		<g transform="">
			<rect x="0" y="0" class="st1" width="100" height="100"/>
		</g>
	</g>
	<g transform="translate(464,240) scale(0.16,0.16)">
		<g transform="">
			<rect x="0" y="0" class="st1" width="100" height="100"/>
		</g>
	</g>
	<g transform="translate(480,240) scale(0.16,0.16)">
		<g transform="">
			<rect x="0" y="0" class="st1" width="100" height="100"/>
		</g>
	</g>
	<g transform="translate(496,240) scale(1.1428571428571,1.1428571428571)">
		<g transform="">
			<path class="st1" d="M0,14V0h14l0,0v3.4C14,9.3,7.7,14,0,14z"/>
		</g>
	</g>
	<g transform="translate(16,256) scale(0.16,0.16)">
		<g transform="">
			<rect x="0" y="0" class="st1" width="100" height="100"/>
		</g>
	</g>
	<g transform="translate(96,256) scale(1.1428571428571,1.1428571428571)">
		<g transform="">
			<path class="st1" d="M14,0v14c0,0-9.2-4.4-14-0.6C0,13.4-0.2,0,14,0z"/>
		</g>
	</g>
	<g transform="translate(112,256) scale(0.16,0.16)">
		<g transform="">
			<rect x="0" y="0" class="st1" width="100" height="100"/>
		</g>
	</g>
	<g transform="translate(160,256) scale(1.1428571428571,1.1428571428571)">
		<g transform="">
			<path class="st1" d="M0,0h14c0,0-4.4,9.2-0.6,14C13.4,14,0,14.2,0,0z"/>
		</g>
	</g>
	<g transform="translate(208,256) scale(1.1428571428571,1.1428571428571)">
		<g transform="">
			<path class="st1" d="M14,0v14c0,0-9.2-4.4-14-0.6C0,13.4-0.2,0,14,0z"/>
		</g>
	</g>
	<g transform="translate(224,256) scale(0.16,0.16)">
		<g transform="">
			<rect x="0" y="0" class="st1" width="100" height="100"/>
		</g>
	</g>
	<g transform="translate(256,256) scale(0.16,0.16)">
		<g transform="">
			<rect x="0" y="0" class="st1" width="100" height="100"/>
		</g>
	</g>
	<g transform="translate(288,256) scale(0.16,0.16)">
		<g transform="">
			<rect x="0" y="0" class="st1" width="100" height="100"/>
		</g>
	</g>
	<g transform="translate(304,256) scale(0.16,0.16)">
		<g transform="">
			<rect x="0" y="0" class="st1" width="100" height="100"/>
		</g>
	</g>
	<g transform="translate(368,256) scale(0.16,0.16)">
		<g transform="">
			<rect x="0" y="0" class="st1" width="100" height="100"/>
		</g>
	</g>
	<g transform="translate(400,256) scale(1.1428571428571,1.1428571428571)">
		<g transform="">
			<path class="st1" d="M0,0h14c0,0-4.4,9.2-0.6,14C13.4,14,0,14.2,0,0z"/>
		</g>
	</g>
	<g transform="translate(448,256) scale(1.1428571428571,1.1428571428571)">
		<g transform="">
			<path class="st1" d="M0,0h14v14l0,0h-3.4C4.7,14,0,7.7,0,0z"/>
		</g>
	</g>
	<g transform="translate(464,256) scale(0.16,0.16)">
		<g transform="">
			<rect x="0" y="0" class="st1" width="100" height="100"/>
		</g>
	</g>
	<g transform="translate(480,256) scale(1.1428571428571,1.1428571428571)">
		<g transform="">
			<path class="st1" d="M0,14V0h14l0,0v3.4C14,9.3,7.7,14,0,14z"/>
		</g>
	</g>
	<g transform="translate(0,272) scale(1.1428571428571,1.1428571428571)">
		<g transform="">
			<path class="st1" d="M14,0v14H0l0,0v-3.4C0,4.7,6.3,0,14,0z"/>
		</g>
	</g>
	<g transform="translate(16,272) scale(1.1428571428571,1.1428571428571)">
		<g transform="">
			<path class="st1" d="M0,14V0h14l0,0v3.4C14,9.3,7.7,14,0,14z"/>
		</g>
	</g>
	<g transform="translate(64,272) scale(1.1428571428571,1.1428571428571)">
		<g transform="">
			<path class="st1" d="M14,0v14c0,0-9.2-4.4-14-0.6C0,13.4-0.2,0,14,0z"/>
		</g>
	</g>
	<g transform="translate(80,272) scale(1.1428571428571,1.1428571428571)">
		<g transform="">
			<path class="st1" d="M0,14V0c0,0,9.2,4.4,14,0.6C14,0.6,14.2,14,0,14z"/>
		</g>
	</g>
	<g transform="translate(112,272) scale(0.16,0.16)">
		<g transform="">
			<rect x="0" y="0" class="st1" width="100" height="100"/>
		</g>
	</g>
	<g transform="translate(128,272) scale(1.1428571428571,1.1428571428571)">
		<g transform="">
			<path class="st1" d="M14,14H0V0l0,0h3.4C9.3,0,14,6.3,14,14z"/>
		</g>
	</g>
	<g transform="translate(224,272) scale(0.16,0.16)">
		<g transform="">
			<rect x="0" y="0" class="st1" width="100" height="100"/>
		</g>
	</g>
	<g transform="translate(256,272) scale(1.1428571428571,1.1428571428571)">
		<g transform="">
			<path class="st1" d="M0,0h14c0,0-4.4,9.2-0.6,14C13.4,14,0,14.2,0,0z"/>
		</g>
	</g>
	<g transform="translate(288,272) scale(1.1428571428571,1.1428571428571)">
		<g transform="">
			<path class="st1" d="M0,0h14v14l0,0h-3.4C4.7,14,0,7.7,0,0z"/>
		</g>
	</g>
	<g transform="translate(304,272) scale(1.1428571428571,1.1428571428571)">
		<g transform="">
			<path class="st1" d="M0,14V0h14l0,0v3.4C14,9.3,7.7,14,0,14z"/>
		</g>
	</g>
	<g transform="translate(368,272) scale(1.1428571428571,1.1428571428571)">
		<g transform="">
			<path class="st1" d="M0,0h14v14l0,0h-3.4C4.7,14,0,7.7,0,0z"/>
		</g>
	</g>
	<g transform="translate(384,272) scale(1.1428571428571,1.1428571428571)">
		<g transform="">
			<path class="st1" d="M0,14V0c0,0,9.2,4.4,14,0.6C14,0.6,14.2,14,0,14z"/>
		</g>
	</g>
	<g transform="translate(416,272) scale(0.032,0.032)">
		<g transform="">
			<path class="st1" d="M250,0c138.1,0,250,111.9,250,250S388.1,500,250,500S0,388.1,0,250S111.9,0,250,0z"/>
		</g>
	</g>
	<g transform="translate(496,272) scale(1.1428571428571,1.1428571428571)">
		<g transform="">
			<path class="st1" d="M14,14H0c0,0,4.4-9.2,0.6-14C0.6,0,14-0.2,14,14z"/>
		</g>
	</g>
	<g transform="translate(0,288) scale(1.1428571428571,1.1428571428571)">
		<g transform="">
			<path class="st1" d="M0,0h14c0,0-4.4,9.2-0.6,14C13.4,14,0,14.2,0,0z"/>
		</g>
	</g>
	<g transform="translate(96,288) scale(1.1428571428571,1.1428571428571)">
		<g transform="">
			<path class="st1" d="M14,0v14c0,0-9.2-4.4-14-0.6C0,13.4-0.2,0,14,0z"/>
		</g>
	</g>
	<g transform="translate(112,288) scale(0.16,0.16)">
		<g transform="">
			<rect x="0" y="0" class="st1" width="100" height="100"/>
		</g>
	</g>
	<g transform="translate(128,288) scale(0.16,0.16)">
		<g transform="">
			<rect x="0" y="0" class="st1" width="100" height="100"/>
		</g>
	</g>
	<g transform="translate(192,288) scale(1.1428571428571,1.1428571428571)">
		<g transform="">
			<path class="st1" d="M14,14H0c0,0,4.4-9.2,0.6-14C0.6,0,14-0.2,14,14z"/>
		</g>
	</g>
	<g transform="translate(224,288) scale(0.16,0.16)">
		<g transform="">
			<rect x="0" y="0" class="st1" width="100" height="100"/>
		</g>
	</g>
	<g transform="translate(240,288) scale(1.1428571428571,1.1428571428571)">
		<g transform="">
			<path class="st1" d="M0,14V0c0,0,9.2,4.4,14,0.6C14,0.6,14.2,14,0,14z"/>
		</g>
	</g>
	<g transform="translate(320,288) scale(1.1428571428571,1.1428571428571)">
		<g transform="">
			<path class="st1" d="M14,14H0c0,0,4.4-9.2,0.6-14C0.6,0,14-0.2,14,14z"/>
		</g>
	</g>
	<g transform="translate(352,288) scale(0.032,0.032)">
		<g transform="">
			<path class="st1" d="M250,0c138.1,0,250,111.9,250,250S388.1,500,250,500S0,388.1,0,250S111.9,0,250,0z"/>
		</g>
	</g>
	<g transform="translate(400,288) scale(1.1428571428571,1.1428571428571)">
		<g transform="">
			<path class="st1" d="M14,14H0c0,0,4.4-9.2,0.6-14C0.6,0,14-0.2,14,14z"/>
		</g>
	</g>
	<g transform="translate(432,288) scale(1.1428571428571,1.1428571428571)">
		<g transform="">
			<path class="st1" d="M14,14H0c0,0,4.4-9.2,0.6-14C0.6,0,14-0.2,14,14z"/>
		</g>
	</g>
	<g transform="translate(480,288) scale(1.1428571428571,1.1428571428571)">
		<g transform="">
			<path class="st1" d="M14,0v14H0l0,0v-3.4C0,4.7,6.3,0,14,0z"/>
		</g>
	</g>
	<g transform="translate(496,288) scale(0.16,0.16)">
		<g transform="">
			<rect x="0" y="0" class="st1" width="100" height="100"/>
		</g>
	</g>
	<g transform="translate(16,304) scale(1.1428571428571,1.1428571428571)">
		<g transform="">
			<path class="st1" d="M14,14H0c0,0,4.4-9.2,0.6-14C0.6,0,14-0.2,14,14z"/>
		</g>
	</g>
	<g transform="translate(64,304) scale(0.032,0.032)">
		<g transform="">
			<path class="st1" d="M250,0c138.1,0,250,111.9,250,250S388.1,500,250,500S0,388.1,0,250S111.9,0,250,0z"/>
		</g>
	</g>
	<g transform="translate(112,304) scale(0.16,0.16)">
		<g transform="">
			<rect x="0" y="0" class="st1" width="100" height="100"/>
		</g>
	</g>
	<g transform="translate(128,304) scale(0.16,0.16)">
		<g transform="">
			<rect x="0" y="0" class="st1" width="100" height="100"/>
		</g>
	</g>
	<g transform="translate(192,304) scale(0.16,0.16)">
		<g transform="">
			<rect x="0" y="0" class="st1" width="100" height="100"/>
		</g>
	</g>
	<g transform="translate(208,304) scale(0.16,0.16)">
		<g transform="">
			<rect x="0" y="0" class="st1" width="100" height="100"/>
		</g>
	</g>
	<g transform="translate(224,304) scale(1.1428571428571,1.1428571428571)">
		<g transform="">
			<path class="st1" d="M0,14V0h14l0,0v3.4C14,9.3,7.7,14,0,14z"/>
		</g>
	</g>
	<g transform="translate(288,304) scale(1.1428571428571,1.1428571428571)">
		<g transform="">
			<path class="st1" d="M14,0v14H0l0,0v-3.4C0,4.7,6.3,0,14,0z"/>
		</g>
	</g>
	<g transform="translate(304,304) scale(0.16,0.16)">
		<g transform="">
			<rect x="0" y="0" class="st1" width="100" height="100"/>
		</g>
	</g>
	<g transform="translate(320,304) scale(0.16,0.16)">
		<g transform="">
			<rect x="0" y="0" class="st1" width="100" height="100"/>
		</g>
	</g>
	<g transform="translate(336,304) scale(1.1428571428571,1.1428571428571)">
		<g transform="">
			<path class="st1" d="M0,14V0c0,0,9.2,4.4,14,0.6C14,0.6,14.2,14,0,14z"/>
		</g>
	</g>
	<g transform="translate(368,304) scale(1.1428571428571,1.1428571428571)">
		<g transform="">
			<path class="st1" d="M14,0v14c0,0-9.2-4.4-14-0.6C0,13.4-0.2,0,14,0z"/>
		</g>
	</g>
	<g transform="translate(384,304) scale(0.16,0.16)">
		<g transform="">
			<rect x="0" y="0" class="st1" width="100" height="100"/>
		</g>
	</g>
	<g transform="translate(400,304) scale(0.16,0.16)">
		<g transform="">
			<rect x="0" y="0" class="st1" width="100" height="100"/>
		</g>
	</g>
	<g transform="translate(416,304) scale(0.16,0.16)">
		<g transform="">
			<rect x="0" y="0" class="st1" width="100" height="100"/>
		</g>
	</g>
	<g transform="translate(432,304) scale(0.16,0.16)">
		<g transform="">
			<rect x="0" y="0" class="st1" width="100" height="100"/>
		</g>
	</g>
	<g transform="translate(448,304) scale(0.16,0.16)">
		<g transform="">
			<rect x="0" y="0" class="st1" width="100" height="100"/>
		</g>
	</g>
	<g transform="translate(464,304) scale(0.16,0.16)">
		<g transform="">
			<rect x="0" y="0" class="st1" width="100" height="100"/>
		</g>
	</g>
	<g transform="translate(480,304) scale(0.16,0.16)">
		<g transform="">
			<rect x="0" y="0" class="st1" width="100" height="100"/>
		</g>
	</g>
	<g transform="translate(496,304) scale(0.16,0.16)">
		<g transform="">
			<rect x="0" y="0" class="st1" width="100" height="100"/>
		</g>
	</g>
	<g transform="translate(512,304) scale(1.1428571428571,1.1428571428571)">
		<g transform="">
			<path class="st1" d="M14,14H0V0l0,0h3.4C9.3,0,14,6.3,14,14z"/>
		</g>
	</g>
	<g transform="translate(0,320) scale(1.1428571428571,1.1428571428571)">
		<g transform="">
			<path class="st1" d="M14,0v14H0l0,0v-3.4C0,4.7,6.3,0,14,0z"/>
		</g>
	</g>
	<g transform="translate(16,320) scale(0.16,0.16)">
		<g transform="">
			<rect x="0" y="0" class="st1" width="100" height="100"/>
		</g>
	</g>
	<g transform="translate(48,320) scale(0.032,0.032)">
		<g transform="">
			<path class="st1" d="M250,0c138.1,0,250,111.9,250,250S388.1,500,250,500S0,388.1,0,250S111.9,0,250,0z"/>
		</g>
	</g>
	<g transform="translate(96,320) scale(1.1428571428571,1.1428571428571)">
		<g transform="">
			<path class="st1" d="M14,0v14c0,0-9.2-4.4-14-0.6C0,13.4-0.2,0,14,0z"/>
		</g>
	</g>
	<g transform="translate(112,320) scale(0.16,0.16)">
		<g transform="">
			<rect x="0" y="0" class="st1" width="100" height="100"/>
		</g>
	</g>
	<g transform="translate(128,320) scale(0.16,0.16)">
		<g transform="">
			<rect x="0" y="0" class="st1" width="100" height="100"/>
		</g>
	</g>
	<g transform="translate(160,320) scale(1.1428571428571,1.1428571428571)">
		<g transform="">
			<path class="st1" d="M14,0v14H0l0,0v-3.4C0,4.7,6.3,0,14,0z"/>
		</g>
	</g>
	<g transform="translate(176,320) scale(0.16,0.16)">
		<g transform="">
			<rect x="0" y="0" class="st1" width="100" height="100"/>
		</g>
	</g>
	<g transform="translate(192,320) scale(1.1428571428571,1.1428571428571)">
		<g transform="">
			<path class="st1" d="M0,14V0h14l0,0v3.4C14,9.3,7.7,14,0,14z"/>
		</g>
	</g>
	<g transform="translate(240,320) scale(1.1428571428571,1.1428571428571)">
		<g transform="">
			<path class="st1" d="M14,0v14H0l0,0v-3.4C0,4.7,6.3,0,14,0z"/>
		</g>
	</g>
	<g transform="translate(256,320) scale(0.16,0.16)">
		<g transform="">
			<rect x="0" y="0" class="st1" width="100" height="100"/>
		</g>
	</g>
	<g transform="translate(272,320) scale(0.16,0.16)">
		<g transform="">
			<rect x="0" y="0" class="st1" width="100" height="100"/>
		</g>
	</g>
	<g transform="translate(288,320) scale(0.16,0.16)">
		<g transform="">
			<rect x="0" y="0" class="st1" width="100" height="100"/>
		</g>
	</g>
	<g transform="translate(304,320) scale(0.16,0.16)">
		<g transform="">
			<rect x="0" y="0" class="st1" width="100" height="100"/>
		</g>
	</g>
	<g transform="translate(320,320) scale(0.16,0.16)">
		<g transform="">
			<rect x="0" y="0" class="st1" width="100" height="100"/>
		</g>
	</g>
	<g transform="translate(352,320) scale(0.032,0.032)">
		<g transform="">
			<path class="st1" d="M250,0c138.1,0,250,111.9,250,250S388.1,500,250,500S0,388.1,0,250S111.9,0,250,0z"/>
		</g>
	</g>
	<g transform="translate(400,320) scale(1.1428571428571,1.1428571428571)">
		<g transform="">
			<path class="st1" d="M0,0h14c0,0-4.4,9.2-0.6,14C13.4,14,0,14.2,0,0z"/>
		</g>
	</g>
	<g transform="translate(448,320) scale(1.1428571428571,1.1428571428571)">
		<g transform="">
			<path class="st1" d="M0,0h14v14l0,0h-3.4C4.7,14,0,7.7,0,0z"/>
		</g>
	</g>
	<g transform="translate(464,320) scale(1.1428571428571,1.1428571428571)">
		<g transform="">
			<path class="st1" d="M0,14V0h14l0,0v3.4C14,9.3,7.7,14,0,14z"/>
		</g>
	</g>
	<g transform="translate(496,320) scale(1.1428571428571,1.1428571428571)">
		<g transform="">
			<path class="st1" d="M0,0h14v14l0,0h-3.4C4.7,14,0,7.7,0,0z"/>
		</g>
	</g>
	<g transform="translate(512,320) scale(0.16,0.16)">
		<g transform="">
			<rect x="0" y="0" class="st1" width="100" height="100"/>
		</g>
	</g>
	<g transform="translate(0,336) scale(0.16,0.16)">
		<g transform="">
			<rect x="0" y="0" class="st1" width="100" height="100"/>
		</g>
	</g>
	<g transform="translate(16,336) scale(0.16,0.16)">
		<g transform="">
			<rect x="0" y="0" class="st1" width="100" height="100"/>
		</g>
	</g>
	<g transform="translate(32,336) scale(1.1428571428571,1.1428571428571)">
		<g transform="">
			<path class="st1" d="M0,14V0c0,0,9.2,4.4,14,0.6C14,0.6,14.2,14,0,14z"/>
		</g>
	</g>
	<g transform="translate(80,336) scale(1.1428571428571,1.1428571428571)">
		<g transform="">
			<path class="st1" d="M14,14H0c0,0,4.4-9.2,0.6-14C0.6,0,14-0.2,14,14z"/>
		</g>
	</g>
	<g transform="translate(128,336) scale(0.16,0.16)">
		<g transform="">
			<rect x="0" y="0" class="st1" width="100" height="100"/>
		</g>
	</g>
	<g transform="translate(160,336) scale(1.1428571428571,1.1428571428571)">
		<g transform="">
			<path class="st1" d="M0,0h14v14l0,0h-3.4C4.7,14,0,7.7,0,0z"/>
		</g>
	</g>
	<g transform="translate(176,336) scale(0.16,0.16)">
		<g transform="">
			<rect x="0" y="0" class="st1" width="100" height="100"/>
		</g>
	</g>
	<g transform="translate(240,336) scale(1.1428571428571,1.1428571428571)">
		<g transform="">
			<path class="st1" d="M0,0h14c0,0-4.4,9.2-0.6,14C13.4,14,0,14.2,0,0z"/>
		</g>
	</g>
	<g transform="translate(272,336) scale(1.1428571428571,1.1428571428571)">
		<g transform="">
			<path class="st1" d="M0,0h14c0,0-4.4,9.2-0.6,14C13.4,14,0,14.2,0,0z"/>
		</g>
	</g>
	<g transform="translate(304,336) scale(1.1428571428571,1.1428571428571)">
		<g transform="">
			<path class="st1" d="M0,0h14v14l0,0h-3.4C4.7,14,0,7.7,0,0z"/>
		</g>
	</g>
	<g transform="translate(320,336) scale(1.1428571428571,1.1428571428571)">
		<g transform="">
			<path class="st1" d="M0,14V0h14l0,0v3.4C14,9.3,7.7,14,0,14z"/>
		</g>
	</g>
	<g transform="translate(512,336) scale(1.1428571428571,1.1428571428571)">
		<g transform="">
			<path class="st1" d="M0,0h14c0,0-4.4,9.2-0.6,14C13.4,14,0,14.2,0,0z"/>
		</g>
	</g>
	<g transform="translate(0,352) scale(0.16,0.16)">
		<g transform="">
			<rect x="0" y="0" class="st1" width="100" height="100"/>
		</g>
	</g>
	<g transform="translate(48,352) scale(1.1428571428571,1.1428571428571)">
		<g transform="">
			<path class="st1" d="M14,14H0c0,0,4.4-9.2,0.6-14C0.6,0,14-0.2,14,14z"/>
		</g>
	</g>
	<g transform="translate(80,352) scale(1.1428571428571,1.1428571428571)">
		<g transform="">
			<path class="st1" d="M0,0h14v14l0,0h-3.4C4.7,14,0,7.7,0,0z"/>
		</g>
	</g>
	<g transform="translate(96,352) scale(1.1428571428571,1.1428571428571)">
		<g transform="">
			<path class="st1" d="M0,14V0c0,0,9.2,4.4,14,0.6C14,0.6,14.2,14,0,14z"/>
		</g>
	</g>
	<g transform="translate(128,352) scale(0.16,0.16)">
		<g transform="">
			<rect x="0" y="0" class="st1" width="100" height="100"/>
		</g>
	</g>
	<g transform="translate(144,352) scale(1.1428571428571,1.1428571428571)">
		<g transform="">
			<path class="st1" d="M0,14V0c0,0,9.2,4.4,14,0.6C14,0.6,14.2,14,0,14z"/>
		</g>
	</g>
	<g transform="translate(176,352) scale(0.16,0.16)">
		<g transform="">
			<rect x="0" y="0" class="st1" width="100" height="100"/>
		</g>
	</g>
	<g transform="translate(256,352) scale(1.1428571428571,1.1428571428571)">
		<g transform="">
			<path class="st1" d="M14,14H0c0,0,4.4-9.2,0.6-14C0.6,0,14-0.2,14,14z"/>
		</g>
	</g>
	<g transform="translate(288,352) scale(1.1428571428571,1.1428571428571)">
		<g transform="">
			<path class="st1" d="M14,14H0c0,0,4.4-9.2,0.6-14C0.6,0,14-0.2,14,14z"/>
		</g>
	</g>
	<g transform="translate(352,352) scale(1.1428571428571,1.1428571428571)">
		<g transform="">
			<path class="st1" d="M14,14H0c0,0,4.4-9.2,0.6-14C0.6,0,14-0.2,14,14z"/>
		</g>
	</g>
	<g transform="translate(464,352) scale(1.1428571428571,1.1428571428571)">
		<g transform="">
			<path class="st1" d="M14,14H0c0,0,4.4-9.2,0.6-14C0.6,0,14-0.2,14,14z"/>
		</g>
	</g>
	<g transform="translate(496,352) scale(1.1428571428571,1.1428571428571)">
		<g transform="">
			<path class="st1" d="M14,14H0c0,0,4.4-9.2,0.6-14C0.6,0,14-0.2,14,14z"/>
		</g>
	</g>
	<g transform="translate(0,368) scale(0.16,0.16)">
		<g transform="">
			<rect x="0" y="0" class="st1" width="100" height="100"/>
		</g>
	</g>
	<g transform="translate(48,368) scale(0.16,0.16)">
		<g transform="">
			<rect x="0" y="0" class="st1" width="100" height="100"/>
		</g>
	</g>
	<g transform="translate(64,368) scale(1.1428571428571,1.1428571428571)">
		<g transform="">
			<path class="st1" d="M0,14V0c0,0,9.2,4.4,14,0.6C14,0.6,14.2,14,0,14z"/>
		</g>
	</g>
	<g transform="translate(112,368) scale(1.1428571428571,1.1428571428571)">
		<g transform="">
			<path class="st1" d="M14,0v14c0,0-9.2-4.4-14-0.6C0,13.4-0.2,0,14,0z"/>
		</g>
	</g>
	<g transform="translate(128,368) scale(0.16,0.16)">
		<g transform="">
			<rect x="0" y="0" class="st1" width="100" height="100"/>
		</g>
	</g>
	<g transform="translate(176,368) scale(1.1428571428571,1.1428571428571)">
		<g transform="">
			<path class="st1" d="M0,0h14c0,0-4.4,9.2-0.6,14C13.4,14,0,14.2,0,0z"/>
		</g>
	</g>
	<g transform="translate(208,368) scale(1.1428571428571,1.1428571428571)">
		<g transform="">
			<path class="st1" d="M14,14H0c0,0,4.4-9.2,0.6-14C0.6,0,14-0.2,14,14z"/>
		</g>
	</g>
	<g transform="translate(240,368) scale(1.1428571428571,1.1428571428571)">
		<g transform="">
			<path class="st1" d="M14,0v14H0l0,0v-3.4C0,4.7,6.3,0,14,0z"/>
		</g>
	</g>
	<g transform="translate(256,368) scale(0.16,0.16)">
		<g transform="">
			<rect x="0" y="0" class="st1" width="100" height="100"/>
		</g>
	</g>
	<g transform="translate(272,368) scale(0.16,0.16)">
		<g transform="">
			<rect x="0" y="0" class="st1" width="100" height="100"/>
		</g>
	</g>
	<g transform="translate(288,368) scale(0.16,0.16)">
		<g transform="">
			<rect x="0" y="0" class="st1" width="100" height="100"/>
		</g>
	</g>
	<g transform="translate(336,368) scale(1.1428571428571,1.1428571428571)">
		<g transform="">
			<path class="st1" d="M14,0v14c0,0-9.2-4.4-14-0.6C0,13.4-0.2,0,14,0z"/>
		</g>
	</g>
	<g transform="translate(352,368) scale(0.16,0.16)">
		<g transform="">
			<rect x="0" y="0" class="st1" width="100" height="100"/>
		</g>
	</g>
	<g transform="translate(368,368) scale(1.1428571428571,1.1428571428571)">
		<g transform="">
			<path class="st1" d="M14,14H0V0l0,0h3.4C9.3,0,14,6.3,14,14z"/>
		</g>
	</g>
	<g transform="translate(432,368) scale(1.1428571428571,1.1428571428571)">
		<g transform="">
			<path class="st1" d="M14,0v14H0l0,0v-3.4C0,4.7,6.3,0,14,0z"/>
		</g>
	</g>
	<g transform="translate(448,368) scale(0.16,0.16)">
		<g transform="">
			<rect x="0" y="0" class="st1" width="100" height="100"/>
		</g>
	</g>
	<g transform="translate(464,368) scale(0.16,0.16)">
		<g transform="">
			<rect x="0" y="0" class="st1" width="100" height="100"/>
		</g>
	</g>
	<g transform="translate(480,368) scale(0.16,0.16)">
		<g transform="">
			<rect x="0" y="0" class="st1" width="100" height="100"/>
		</g>
	</g>
	<g transform="translate(496,368) scale(0.16,0.16)">
		<g transform="">
			<rect x="0" y="0" class="st1" width="100" height="100"/>
		</g>
	</g>
	<g transform="translate(512,368) scale(1.1428571428571,1.1428571428571)">
		<g transform="">
			<path class="st1" d="M0,14V0c0,0,9.2,4.4,14,0.6C14,0.6,14.2,14,0,14z"/>
		</g>
	</g>
	<g transform="translate(0,384) scale(1.1428571428571,1.1428571428571)">
		<g transform="">
			<path class="st1" d="M0,0h14c0,0-4.4,9.2-0.6,14C13.4,14,0,14.2,0,0z"/>
		</g>
	</g>
	<g transform="translate(32,384) scale(1.1428571428571,1.1428571428571)">
		<g transform="">
			<path class="st1" d="M14,0v14c0,0-9.2-4.4-14-0.6C0,13.4-0.2,0,14,0z"/>
		</g>
	</g>
	<g transform="translate(48,384) scale(1.1428571428571,1.1428571428571)">
		<g transform="">
			<path class="st1" d="M0,14V0h14l0,0v3.4C14,9.3,7.7,14,0,14z"/>
		</g>
	</g>
	<g transform="translate(96,384) scale(0.032,0.032)">
		<g transform="">
			<path class="st1" d="M250,0c138.1,0,250,111.9,250,250S388.1,500,250,500S0,388.1,0,250S111.9,0,250,0z"/>
		</g>
	</g>
	<g transform="translate(128,384) scale(0.16,0.16)">
		<g transform="">
			<rect x="0" y="0" class="st1" width="100" height="100"/>
		</g>
	</g>
	<g transform="translate(144,384) scale(1.1428571428571,1.1428571428571)">
		<g transform="">
			<path class="st1" d="M14,14H0V0l0,0h3.4C9.3,0,14,6.3,14,14z"/>
		</g>
	</g>
	<g transform="translate(192,384) scale(1.1428571428571,1.1428571428571)">
		<g transform="">
			<path class="st1" d="M14,0v14c0,0-9.2-4.4-14-0.6C0,13.4-0.2,0,14,0z"/>
		</g>
	</g>
	<g transform="translate(208,384) scale(0.16,0.16)">
		<g transform="">
			<rect x="0" y="0" class="st1" width="100" height="100"/>
		</g>
	</g>
	<g transform="translate(240,384) scale(1.1428571428571,1.1428571428571)">
		<g transform="">
			<path class="st1" d="M0,0h14v14l0,0h-3.4C4.7,14,0,7.7,0,0z"/>
		</g>
	</g>
	<g transform="translate(256,384) scale(0.16,0.16)">
		<g transform="">
			<rect x="0" y="0" class="st1" width="100" height="100"/>
		</g>
	</g>
	<g transform="translate(288,384) scale(0.16,0.16)">
		<g transform="">
			<rect x="0" y="0" class="st1" width="100" height="100"/>
		</g>
	</g>
	<g transform="translate(320,384) scale(1.1428571428571,1.1428571428571)">
		<g transform="">
			<path class="st1" d="M14,14H0c0,0,4.4-9.2,0.6-14C0.6,0,14-0.2,14,14z"/>
		</g>
	</g>
	<g transform="translate(368,384) scale(1.1428571428571,1.1428571428571)">
		<g transform="">
			<path class="st1" d="M0,0h14v14l0,0h-3.4C4.7,14,0,7.7,0,0z"/>
		</g>
	</g>
	<g transform="translate(384,384) scale(0.16,0.16)">
		<g transform="">
			<rect x="0" y="0" class="st1" width="100" height="100"/>
		</g>
	</g>
	<g transform="translate(400,384) scale(0.16,0.16)">
		<g transform="">
			<rect x="0" y="0" class="st1" width="100" height="100"/>
		</g>
	</g>
	<g transform="translate(416,384) scale(0.16,0.16)">
		<g transform="">
			<rect x="0" y="0" class="st1" width="100" height="100"/>
		</g>
	</g>
	<g transform="translate(432,384) scale(0.16,0.16)">
		<g transform="">
			<rect x="0" y="0" class="st1" width="100" height="100"/>
		</g>
	</g>
	<g transform="translate(448,384) scale(0.16,0.16)">
		<g transform="">
			<rect x="0" y="0" class="st1" width="100" height="100"/>
		</g>
	</g>
	<g transform="translate(464,384) scale(0.16,0.16)">
		<g transform="">
			<rect x="0" y="0" class="st1" width="100" height="100"/>
		</g>
	</g>
	<g transform="translate(496,384) scale(0.16,0.16)">
		<g transform="">
			<rect x="0" y="0" class="st1" width="100" height="100"/>
		</g>
	</g>
	<g transform="translate(128,400) scale(1.1428571428571,1.1428571428571)">
		<g transform="">
			<path class="st1" d="M0,0h14v14l0,0h-3.4C4.7,14,0,7.7,0,0z"/>
		</g>
	</g>
	<g transform="translate(144,400) scale(0.16,0.16)">
		<g transform="">
			<rect x="0" y="0" class="st1" width="100" height="100"/>
		</g>
	</g>
	<g transform="translate(160,400) scale(0.16,0.16)">
		<g transform="">
			<rect x="0" y="0" class="st1" width="100" height="100"/>
		</g>
	</g>
	<g transform="translate(176,400) scale(1.1428571428571,1.1428571428571)">
		<g transform="">
			<path class="st1" d="M14,14H0V0l0,0h3.4C9.3,0,14,6.3,14,14z"/>
		</g>
	</g>
	<g transform="translate(208,400) scale(0.16,0.16)">
		<g transform="">
			<rect x="0" y="0" class="st1" width="100" height="100"/>
		</g>
	</g>
	<g transform="translate(224,400) scale(1.1428571428571,1.1428571428571)">
		<g transform="">
			<path class="st1" d="M0,14V0c0,0,9.2,4.4,14,0.6C14,0.6,14.2,14,0,14z"/>
		</g>
	</g>
	<g transform="translate(256,400) scale(0.16,0.16)">
		<g transform="">
			<rect x="0" y="0" class="st1" width="100" height="100"/>
		</g>
	</g>
	<g transform="translate(272,400) scale(0.16,0.16)">
		<g transform="">
			<rect x="0" y="0" class="st1" width="100" height="100"/>
		</g>
	</g>
	<g transform="translate(288,400) scale(1.1428571428571,1.1428571428571)">
		<g transform="">
			<path class="st1" d="M0,14V0h14l0,0v3.4C14,9.3,7.7,14,0,14z"/>
		</g>
	</g>
	<g transform="translate(320,400) scale(1.1428571428571,1.1428571428571)">
		<g transform="">
			<path class="st1" d="M0,0h14c0,0-4.4,9.2-0.6,14C13.4,14,0,14.2,0,0z"/>
		</g>
	</g>
	<g transform="translate(384,400) scale(0.16,0.16)">
		<g transform="">
			<rect x="0" y="0" class="st1" width="100" height="100"/>
		</g>
	</g>
	<g transform="translate(448,400) scale(0.16,0.16)">
		<g transform="">
			<rect x="0" y="0" class="st1" width="100" height="100"/>
		</g>
	</g>
	<g transform="translate(464,400) scale(0.16,0.16)">
		<g transform="">
			<rect x="0" y="0" class="st1" width="100" height="100"/>
		</g>
	</g>
	<g transform="translate(480,400) scale(0.16,0.16)">
		<g transform="">
			<rect x="0" y="0" class="st1" width="100" height="100"/>
		</g>
	</g>
	<g transform="translate(496,400) scale(0.16,0.16)">
		<g transform="">
			<rect x="0" y="0" class="st1" width="100" height="100"/>
		</g>
	</g>
	<g transform="translate(512,400) scale(1.1428571428571,1.1428571428571)">
		<g transform="">
			<path class="st1" d="M0,14V0c0,0,9.2,4.4,14,0.6C14,0.6,14.2,14,0,14z"/>
		</g>
	</g>
	<g transform="translate(160,416) scale(0.16,0.16)">
		<g transform="">
			<rect x="0" y="0" class="st1" width="100" height="100"/>
		</g>
	</g>
	<g transform="translate(176,416) scale(1.1428571428571,1.1428571428571)">
		<g transform="">
			<path class="st1" d="M0,14V0h14l0,0v3.4C14,9.3,7.7,14,0,14z"/>
		</g>
	</g>
	<g transform="translate(208,416) scale(1.1428571428571,1.1428571428571)">
		<g transform="">
			<path class="st1" d="M0,0h14c0,0-4.4,9.2-0.6,14C13.4,14,0,14.2,0,0z"/>
		</g>
	</g>
	<g transform="translate(240,416) scale(1.1428571428571,1.1428571428571)">
		<g transform="">
			<path class="st1" d="M14,0v14c0,0-9.2-4.4-14-0.6C0,13.4-0.2,0,14,0z"/>
		</g>
	</g>
	<g transform="translate(256,416) scale(0.16,0.16)">
		<g transform="">
			<rect x="0" y="0" class="st1" width="100" height="100"/>
		</g>
	</g>
	<g transform="translate(304,416) scale(0.032,0.032)">
		<g transform="">
			<path class="st1" d="M250,0c138.1,0,250,111.9,250,250S388.1,500,250,500S0,388.1,0,250S111.9,0,250,0z"/>
		</g>
	</g>
	<g transform="translate(352,416) scale(1.1428571428571,1.1428571428571)">
		<g transform="">
			<path class="st1" d="M14,0v14c0,0-9.2-4.4-14-0.6C0,13.4-0.2,0,14,0z"/>
		</g>
	</g>
	<g transform="translate(368,416) scale(0.16,0.16)">
		<g transform="">
			<rect x="0" y="0" class="st1" width="100" height="100"/>
		</g>
	</g>
	<g transform="translate(384,416) scale(0.16,0.16)">
		<g transform="">
			<rect x="0" y="0" class="st1" width="100" height="100"/>
		</g>
	</g>
	<g transform="translate(416,416) scale(0.032,0.032)">
		<g transform="">
			<path class="st1" d="M250,0c138.1,0,250,111.9,250,250S388.1,500,250,500S0,388.1,0,250S111.9,0,250,0z"/>
		</g>
	</g>
	<g transform="translate(448,416) scale(0.16,0.16)">
		<g transform="">
			<rect x="0" y="0" class="st1" width="100" height="100"/>
		</g>
	</g>
	<g transform="translate(480,416) scale(0.16,0.16)">
		<g transform="">
			<rect x="0" y="0" class="st1" width="100" height="100"/>
		</g>
	</g>
	<g transform="translate(496,416) scale(0.16,0.16)">
		<g transform="">
			<rect x="0" y="0" class="st1" width="100" height="100"/>
		</g>
	</g>
	<g transform="translate(144,432) scale(1.1428571428571,1.1428571428571)">
		<g transform="">
			<path class="st1" d="M14,0v14H0l0,0v-3.4C0,4.7,6.3,0,14,0z"/>
		</g>
	</g>
	<g transform="translate(160,432) scale(0.16,0.16)">
		<g transform="">
			<rect x="0" y="0" class="st1" width="100" height="100"/>
		</g>
	</g>
	<g transform="translate(256,432) scale(1.1428571428571,1.1428571428571)">
		<g transform="">
			<path class="st1" d="M0,0h14c0,0-4.4,9.2-0.6,14C13.4,14,0,14.2,0,0z"/>
		</g>
	</g>
	<g transform="translate(320,432) scale(1.1428571428571,1.1428571428571)">
		<g transform="">
			<path class="st1" d="M14,14H0c0,0,4.4-9.2,0.6-14C0.6,0,14-0.2,14,14z"/>
		</g>
	</g>
	<g transform="translate(384,432) scale(0.16,0.16)">
		<g transform="">
			<rect x="0" y="0" class="st1" width="100" height="100"/>
		</g>
	</g>
	<g transform="translate(448,432) scale(0.16,0.16)">
		<g transform="">
			<rect x="0" y="0" class="st1" width="100" height="100"/>
		</g>
	</g>
	<g transform="translate(464,432) scale(0.16,0.16)">
		<g transform="">
			<rect x="0" y="0" class="st1" width="100" height="100"/>
		</g>
	</g>
	<g transform="translate(480,432) scale(0.16,0.16)">
		<g transform="">
			<rect x="0" y="0" class="st1" width="100" height="100"/>
		</g>
	</g>
	<g transform="translate(496,432) scale(0.16,0.16)">
		<g transform="">
			<rect x="0" y="0" class="st1" width="100" height="100"/>
		</g>
	</g>
	<g transform="translate(512,432) scale(1.1428571428571,1.1428571428571)">
		<g transform="">
			<path class="st1" d="M14,14H0V0l0,0h3.4C9.3,0,14,6.3,14,14z"/>
		</g>
	</g>
	<g transform="translate(128,448) scale(1.1428571428571,1.1428571428571)">
		<g transform="">
			<path class="st1" d="M14,0v14H0l0,0v-3.4C0,4.7,6.3,0,14,0z"/>
		</g>
	</g>
	<g transform="translate(144,448) scale(0.16,0.16)">
		<g transform="">
			<rect x="0" y="0" class="st1" width="100" height="100"/>
		</g>
	</g>
	<g transform="translate(160,448) scale(0.16,0.16)">
		<g transform="">
			<rect x="0" y="0" class="st1" width="100" height="100"/>
		</g>
	</g>
	<g transform="translate(176,448) scale(1.1428571428571,1.1428571428571)">
		<g transform="">
			<path class="st1" d="M0,14V0c0,0,9.2,4.4,14,0.6C14,0.6,14.2,14,0,14z"/>
		</g>
	</g>
	<g transform="translate(208,448) scale(1.1428571428571,1.1428571428571)">
		<g transform="">
			<path class="st1" d="M14,0v14c0,0-9.2-4.4-14-0.6C0,13.4-0.2,0,14,0z"/>
		</g>
	</g>
	<g transform="translate(224,448) scale(0.16,0.16)">
		<g transform="">
			<rect x="0" y="0" class="st1" width="100" height="100"/>
		</g>
	</g>
	<g transform="translate(240,448) scale(1.1428571428571,1.1428571428571)">
		<g transform="">
			<path class="st1" d="M0,14V0c0,0,9.2,4.4,14,0.6C14,0.6,14.2,14,0,14z"/>
		</g>
	</g>
	<g transform="translate(320,448) scale(1.1428571428571,1.1428571428571)">
		<g transform="">
			<path class="st1" d="M0,0h14v14l0,0h-3.4C4.7,14,0,7.7,0,0z"/>
		</g>
	</g>
	<g transform="translate(336,448) scale(0.16,0.16)">
		<g transform="">
			<rect x="0" y="0" class="st1" width="100" height="100"/>
		</g>
	</g>
	<g transform="translate(352,448) scale(1.1428571428571,1.1428571428571)">
		<g transform="">
			<path class="st1" d="M0,14V0c0,0,9.2,4.4,14,0.6C14,0.6,14.2,14,0,14z"/>
		</g>
	</g>
	<g transform="translate(384,448) scale(1.1428571428571,1.1428571428571)">
		<g transform="">
			<path class="st1" d="M0,0h14v14l0,0h-3.4C4.7,14,0,7.7,0,0z"/>
		</g>
	</g>
	<g transform="translate(400,448) scale(0.16,0.16)">
		<g transform="">
			<rect x="0" y="0" class="st1" width="100" height="100"/>
		</g>
	</g>
	<g transform="translate(416,448) scale(0.16,0.16)">
		<g transform="">
			<rect x="0" y="0" class="st1" width="100" height="100"/>
		</g>
	</g>
	<g transform="translate(432,448) scale(0.16,0.16)">
		<g transform="">
			<rect x="0" y="0" class="st1" width="100" height="100"/>
		</g>
	</g>
	<g transform="translate(448,448) scale(0.16,0.16)">
		<g transform="">
			<rect x="0" y="0" class="st1" width="100" height="100"/>
		</g>
	</g>
	<g transform="translate(496,448) scale(1.1428571428571,1.1428571428571)">
		<g transform="">
			<path class="st1" d="M0,0h14v14l0,0h-3.4C4.7,14,0,7.7,0,0z"/>
		</g>
	</g>
	<g transform="translate(512,448) scale(0.16,0.16)">
		<g transform="">
			<rect x="0" y="0" class="st1" width="100" height="100"/>
		</g>
	</g>
	<g transform="translate(128,464) scale(0.16,0.16)">
		<g transform="">
			<rect x="0" y="0" class="st1" width="100" height="100"/>
		</g>
	</g>
	<g transform="translate(144,464) scale(0.16,0.16)">
		<g transform="">
			<rect x="0" y="0" class="st1" width="100" height="100"/>
		</g>
	</g>
	<g transform="translate(160,464) scale(0.16,0.16)">
		<g transform="">
			<rect x="0" y="0" class="st1" width="100" height="100"/>
		</g>
	</g>
	<g transform="translate(192,464) scale(1.1428571428571,1.1428571428571)">
		<g transform="">
			<path class="st1" d="M14,14H0c0,0,4.4-9.2,0.6-14C0.6,0,14-0.2,14,14z"/>
		</g>
	</g>
	<g transform="translate(336,464) scale(0.16,0.16)">
		<g transform="">
			<rect x="0" y="0" class="st1" width="100" height="100"/>
		</g>
	</g>
	<g transform="translate(400,464) scale(0.16,0.16)">
		<g transform="">
			<rect x="0" y="0" class="st1" width="100" height="100"/>
		</g>
	</g>
	<g transform="translate(448,464) scale(1.1428571428571,1.1428571428571)">
		<g transform="">
			<path class="st1" d="M0,0h14c0,0-4.4,9.2-0.6,14C13.4,14,0,14.2,0,0z"/>
		</g>
	</g>
	<g transform="translate(480,464) scale(1.1428571428571,1.1428571428571)">
		<g transform="">
			<path class="st1" d="M14,14H0c0,0,4.4-9.2,0.6-14C0.6,0,14-0.2,14,14z"/>
		</g>
	</g>
	<g transform="translate(512,464) scale(1.1428571428571,1.1428571428571)">
		<g transform="">
			<path class="st1" d="M0,0h14c0,0-4.4,9.2-0.6,14C13.4,14,0,14.2,0,0z"/>
		</g>
	</g>
	<g transform="translate(128,480) scale(1.1428571428571,1.1428571428571)">
		<g transform="">
			<path class="st1" d="M0,0h14v14l0,0h-3.4C4.7,14,0,7.7,0,0z"/>
		</g>
	</g>
	<g transform="translate(144,480) scale(0.16,0.16)">
		<g transform="">
			<rect x="0" y="0" class="st1" width="100" height="100"/>
		</g>
	</g>
	<g transform="translate(160,480) scale(0.16,0.16)">
		<g transform="">
			<rect x="0" y="0" class="st1" width="100" height="100"/>
		</g>
	</g>
	<g transform="translate(192,480) scale(0.16,0.16)">
		<g transform="">
			<rect x="0" y="0" class="st1" width="100" height="100"/>
		</g>
	</g>
	<g transform="translate(224,480) scale(1.1428571428571,1.1428571428571)">
		<g transform="">
			<path class="st1" d="M14,0v14H0l0,0v-3.4C0,4.7,6.3,0,14,0z"/>
		</g>
	</g>
	<g transform="translate(240,480) scale(0.16,0.16)">
		<g transform="">
			<rect x="0" y="0" class="st1" width="100" height="100"/>
		</g>
	</g>
	<g transform="translate(256,480) scale(1.1428571428571,1.1428571428571)">
		<g transform="">
			<path class="st1" d="M0,14V0c0,0,9.2,4.4,14,0.6C14,0.6,14.2,14,0,14z"/>
		</g>
	</g>
	<g transform="translate(288,480) scale(1.1428571428571,1.1428571428571)">
		<g transform="">
			<path class="st1" d="M14,14H0c0,0,4.4-9.2,0.6-14C0.6,0,14-0.2,14,14z"/>
		</g>
	</g>
	<g transform="translate(336,480) scale(1.1428571428571,1.1428571428571)">
		<g transform="">
			<path class="st1" d="M0,0h14v14l0,0h-3.4C4.7,14,0,7.7,0,0z"/>
		</g>
	</g>
	<g transform="translate(352,480) scale(1.1428571428571,1.1428571428571)">
		<g transform="">
			<path class="st1" d="M0,14V0c0,0,9.2,4.4,14,0.6C14,0.6,14.2,14,0,14z"/>
		</g>
	</g>
	<g transform="translate(384,480) scale(1.1428571428571,1.1428571428571)">
		<g transform="">
			<path class="st1" d="M14,0v14c0,0-9.2-4.4-14-0.6C0,13.4-0.2,0,14,0z"/>
		</g>
	</g>
	<g transform="translate(400,480) scale(0.16,0.16)">
		<g transform="">
			<rect x="0" y="0" class="st1" width="100" height="100"/>
		</g>
	</g>
	<g transform="translate(416,480) scale(1.1428571428571,1.1428571428571)">
		<g transform="">
			<path class="st1" d="M14,14H0V0l0,0h3.4C9.3,0,14,6.3,14,14z"/>
		</g>
	</g>
	<g transform="translate(480,480) scale(0.16,0.16)">
		<g transform="">
			<rect x="0" y="0" class="st1" width="100" height="100"/>
		</g>
	</g>
	<g transform="translate(144,496) scale(0.16,0.16)">
		<g transform="">
			<rect x="0" y="0" class="st1" width="100" height="100"/>
		</g>
	</g>
	<g transform="translate(160,496) scale(0.16,0.16)">
		<g transform="">
			<rect x="0" y="0" class="st1" width="100" height="100"/>
		</g>
	</g>
	<g transform="translate(176,496) scale(0.16,0.16)">
		<g transform="">
			<rect x="0" y="0" class="st1" width="100" height="100"/>
		</g>
	</g>
	<g transform="translate(192,496) scale(0.16,0.16)">
		<g transform="">
			<rect x="0" y="0" class="st1" width="100" height="100"/>
		</g>
	</g>
	<g transform="translate(208,496) scale(0.16,0.16)">
		<g transform="">
			<rect x="0" y="0" class="st1" width="100" height="100"/>
		</g>
	</g>
	<g transform="translate(224,496) scale(0.16,0.16)">
		<g transform="">
			<rect x="0" y="0" class="st1" width="100" height="100"/>
		</g>
	</g>
	<g transform="translate(240,496) scale(1.1428571428571,1.1428571428571)">
		<g transform="">
			<path class="st1" d="M0,14V0h14l0,0v3.4C14,9.3,7.7,14,0,14z"/>
		</g>
	</g>
	<g transform="translate(272,496) scale(1.1428571428571,1.1428571428571)">
		<g transform="">
			<path class="st1" d="M14,0v14H0l0,0v-3.4C0,4.7,6.3,0,14,0z"/>
		</g>
	</g>
	<g transform="translate(288,496) scale(1.1428571428571,1.1428571428571)">
		<g transform="">
			<path class="st1" d="M0,14V0h14l0,0v3.4C14,9.3,7.7,14,0,14z"/>
		</g>
	</g>
	<g transform="translate(320,496) scale(1.1428571428571,1.1428571428571)">
		<g transform="">
			<path class="st1" d="M14,14H0c0,0,4.4-9.2,0.6-14C0.6,0,14-0.2,14,14z"/>
		</g>
	</g>
	<g transform="translate(416,496) scale(1.1428571428571,1.1428571428571)">
		<g transform="">
			<path class="st1" d="M0,0h14v14l0,0h-3.4C4.7,14,0,7.7,0,0z"/>
		</g>
	</g>
	<g transform="translate(432,496) scale(1.1428571428571,1.1428571428571)">
		<g transform="">
			<path class="st1" d="M0,14V0c0,0,9.2,4.4,14,0.6C14,0.6,14.2,14,0,14z"/>
		</g>
	</g>
	<g transform="translate(464,496) scale(1.1428571428571,1.1428571428571)">
		<g transform="">
			<path class="st1" d="M14,0v14H0l0,0v-3.4C0,4.7,6.3,0,14,0z"/>
		</g>
	</g>
	<g transform="translate(480,496) scale(0.16,0.16)">
		<g transform="">
			<rect x="0" y="0" class="st1" width="100" height="100"/>
		</g>
	</g>
	<g transform="translate(144,512) scale(1.1428571428571,1.1428571428571)">
		<g transform="">
			<path class="st1" d="M0,0h14c0,0-4.4,9.2-0.6,14C13.4,14,0,14.2,0,0z"/>
		</g>
	</g>
	<g transform="translate(224,512) scale(1.1428571428571,1.1428571428571)">
		<g transform="">
			<path class="st1" d="M0,0h14c0,0-4.4,9.2-0.6,14C13.4,14,0,14.2,0,0z"/>
		</g>
	</g>
	<g transform="translate(272,512) scale(1.1428571428571,1.1428571428571)">
		<g transform="">
			<path class="st1" d="M0,0h14c0,0-4.4,9.2-0.6,14C13.4,14,0,14.2,0,0z"/>
		</g>
	</g>
	<g transform="translate(320,512) scale(1.1428571428571,1.1428571428571)">
		<g transform="">
			<path class="st1" d="M0,0h14c0,0-4.4,9.2-0.6,14C13.4,14,0,14.2,0,0z"/>
		</g>
	</g>
	<g transform="translate(368,512) scale(1.1428571428571,1.1428571428571)">
		<g transform="">
			<path class="st1" d="M14,0v14c0,0-9.2-4.4-14-0.6C0,13.4-0.2,0,14,0z"/>
		</g>
	</g>
	<g transform="translate(384,512) scale(0.16,0.16)">
		<g transform="">
			<rect x="0" y="0" class="st1" width="100" height="100"/>
		</g>
	</g>
	<g transform="translate(400,512) scale(1.1428571428571,1.1428571428571)">
		<g transform="">
			<path class="st1" d="M0,14V0c0,0,9.2,4.4,14,0.6C14,0.6,14.2,14,0,14z"/>
		</g>
	</g>
	<g transform="translate(464,512) scale(1.1428571428571,1.1428571428571)">
		<g transform="">
			<path class="st1" d="M0,0h14v14l0,0h-3.4C4.7,14,0,7.7,0,0z"/>
		</g>
	</g>
	<g transform="translate(480,512) scale(0.16,0.16)">
		<g transform="">
			<rect x="0" y="0" class="st1" width="100" height="100"/>
		</g>
	</g>
	<g transform="translate(496,512) scale(1.1428571428571,1.1428571428571)">
		<g transform="">
			<path class="st1" d="M0,14V0c0,0,9.2,4.4,14,0.6C14,0.6,14.2,14,0,14z"/>
		</g>
	</g>
	<g transform="translate(0,0) scale(1.12, 1.12)">
		<g transform="">
			<path class="st1" d="M21.5,100c-6.6,0-13-6.9-14-13.2L0,0l88.1,5.6c6.2,0.9,11.1,6.8,11.1,13.8L100,100H21.5z M85.7,85.7
				l-0.5-57.5c0-5-3.5-9.2-7.9-9.9l-62.9-4l5.4,62c0.7,4.5,5.2,9.4,10,9.4H85.7z"/>
		</g>
	</g>
	<g transform="translate(416,0) scale(1.12, 1.12)">
		<g transform=" translate(100, 0) scale(-1,1) ">
			<path class="st1" d="M21.5,100c-6.6,0-13-6.9-14-13.2L0,0l88.1,5.6c6.2,0.9,11.1,6.8,11.1,13.8L100,100H21.5z M85.7,85.7
				l-0.5-57.5c0-5-3.5-9.2-7.9-9.9l-62.9-4l5.4,62c0.7,4.5,5.2,9.4,10,9.4H85.7z"/>
		</g>
	</g>
	<g transform="translate(0,416) scale(1.12, 1.12)">
		<g transform=" translate(0,100) scale(1,-1) ">
			<path class="st1" d="M21.5,100c-6.6,0-13-6.9-14-13.2L0,0l88.1,5.6c6.2,0.9,11.1,6.8,11.1,13.8L100,100H21.5z M85.7,85.7
				l-0.5-57.5c0-5-3.5-9.2-7.9-9.9l-62.9-4l5.4,62c0.7,4.5,5.2,9.4,10,9.4H85.7z"/>
		</g>
	</g>
	<g transform="translate(32,32) scale(0.48, 0.48)">
		<g transform="">
			<path class="st1" d="M21.5,100c-6.6,0-13-6.9-14-13.2L0,0l88.1,5.6c6.2,0.9,11.1,6.8,11.1,13.9L100,100H21.5z"/>
		</g>
	</g>
	<g transform="translate(448,32) scale(0.48, 0.48)">
		<g transform=" translate(100, 0) scale(-1,1) ">
			<path class="st1" d="M21.5,100c-6.6,0-13-6.9-14-13.2L0,0l88.1,5.6c6.2,0.9,11.1,6.8,11.1,13.9L100,100H21.5z"/>
		</g>
	</g>
	<g transform="translate(32,448) scale(0.48, 0.48)">
		<g transform=" translate(0,100) scale(1,-1) ">
			<path class="st1" d="M21.5,100c-6.6,0-13-6.9-14-13.2L0,0l88.1,5.6c6.2,0.9,11.1,6.8,11.1,13.9L100,100H21.5z"/>
		</g>
	</g>
</g>
<g>
	<rect id="XMLID_2_" x="207.9" y="208" class="st2" width="176" height="176"/>
	<path class="st0" d="M260.8,350.7c-1-0.2-2-0.4-2.9-0.7c-10.9-2.7-18-12-17.8-23.2c0.2-12.3,3.5-23.8,9.5-34.5
		c6.3-11.1,14.5-20.4,24.5-28.2c0.3-0.2,0.6-0.4,0.8-0.7c0.1,0,0.1-0.1,0.1-0.3c-0.2-0.3-0.4-0.7-0.6-1c-4.1-6.2-8.3-12.5-12.4-18.7
		c-1.5-2.2-1.3-3.3,0.6-5.2c3.2-3.2,7-5.4,11.5-6.1c3.5-0.5,6.9,0,10.3,1c2.1,0.6,4.1,1.2,6.1,2s3.9,0.6,5.9-0.1
		c3-1.1,6-2.4,9.1-3.2c5.5-1.4,10.1,0.5,14,4.4c1.1,1.1,1.1,2.3,0.3,3.9c-2.2,4.1-4.4,8.1-6.6,12.2c-1.8,3.3-3.6,6.7-5.4,10
		c-0.4,0.6-0.3,1,0.3,1.4c7.3,5.6,13.8,12.1,19.2,19.5c8.7,11.8,14.2,24.9,15.2,39.7c0.3,4.2,0.3,8.3-1.2,12.3
		c-3.3,8.5-9.5,13.6-18.5,15.1c-0.3,0.1-0.6,0.2-0.9,0.2C301.5,350.7,281.1,350.7,260.8,350.7z M291.2,344.7c9.2,0,18.4-0.1,27.6,0
		c10.4,0.1,17.8-8.1,17.7-17.2c-0.1-9.2-1.9-18.1-5.8-26.5c-6.3-13.6-15.8-24.6-27.8-33.5c-0.4-0.3-1-0.4-1.5-0.5
		c-6.8,0-13.7,0-20.5,0c-0.6,0-1.2,0.2-1.7,0.6c-5.6,4.1-10.6,8.7-15.1,14c-10.2,11.9-16.9,25.4-18.1,41.2c-0.3,4-0.5,8,1.3,11.8
		c3.3,6.7,8.7,10.1,16.2,10.1C272.9,344.7,282.1,344.7,291.2,344.7z M268,241.5c0.1,0.1,0.1,0.3,0.1,0.3c4.1,6.2,8.2,12.4,12.4,18.6
		c0.2,0.3,0.9,0.6,1.3,0.6c6.3,0,12.5,0,18.8,0c0.8,0,1.2-0.3,1.6-1c3.1-5.8,6.2-11.5,9.3-17.3c0.7-1.3,1.3-2.5,2-3.8
		c-2.8-2.1-5.7-2-8.7-0.9c-1.8,0.6-3.5,1.3-5.2,2c-4,1.7-8,2-12.1,0.3c-2.3-1-4.8-1.5-7.3-2.1C275.7,237.3,271.5,238.3,268,241.5z"
		/>
	<path class="st2" d="M355.1,315.1h-18.5l0,0H318c-4.2,0-7.5,3.4-7.5,7.5V341v0.3v18.3c0,4.2,3.4,7.5,7.5,7.5h18.5l0,0H355
		c4.2,0,7.5-3.4,7.5-7.5v-18.3V341v-18.3C362.6,318.5,359.3,315.2,355.1,315.1z"/>
	<path class="st0" d="M355.1,315.1h-18.5l0,0H318c-4.2,0-7.5,3.4-7.5,7.5V341v0.3v18.3c0,4.2,3.4,7.5,7.5,7.5h18.5l0,0H355
		c4.2,0,7.5-3.4,7.5-7.5v-18.3V341v-18.3C362.6,318.5,359.3,315.2,355.1,315.1z M359.2,322.7v16.6h-20.9v-20.7h16.8
		C357.4,318.6,359.2,320.4,359.2,322.7z M318,318.6h16.8v20.7H314v-16.6C314,320.4,315.8,318.6,318,318.6z M314,359.5V343h20.9v20.7
		H318C315.8,363.6,314,361.8,314,359.5z M355.1,363.6h-16.8V343h20.9v16.6C359.2,361.8,357.4,363.6,355.1,363.6z"/>
	<path class="st0" d="M319.1,330.8h3.6v3.6c0,1,0.8,1.7,1.7,1.7c1,0,1.7-0.8,1.7-1.7v-3.6h3.6c1,0,1.7-0.8,1.7-1.7s-0.8-1.7-1.7-1.7
		h-3.6v-3.6c0-1-0.8-1.7-1.7-1.7c-1,0-1.7,0.8-1.7,1.7v3.6h-3.6c-1,0-1.7,0.8-1.7,1.7S318.2,330.8,319.1,330.8z"/>
	<path class="st0" d="M343.4,330.8H354c1,0,1.7-0.8,1.7-1.7s-0.8-1.7-1.7-1.7h-10.6c-1,0-1.7,0.8-1.7,1.7S342.5,330.8,343.4,330.8z"
		/>
	<path class="st0" d="M326.9,353.2l2.5-2.5l0,0c0.7-0.7,0.6-1.8,0-2.4c-0.7-0.7-1.8-0.6-2.4,0l-2.5,2.5l-2.5-2.5l0,0
		c-0.7-0.7-1.8-0.6-2.4,0c-0.7,0.7-0.6,1.8,0,2.4l2.5,2.5l-2.5,2.5c-0.3,0.3-0.5,0.8-0.5,1.2c0,1,0.8,1.7,1.7,1.7
		c0.5,0,0.9-0.2,1.2-0.5l2.5-2.5l2.5,2.5c0.3,0.3,0.8,0.5,1.2,0.5c0.5,0,0.9-0.2,1.2-0.5c0.7-0.7,0.7-1.8,0-2.4L326.9,353.2z"/>
	<path id="XMLID_3_" class="st0" d="M295.6,311.2c8,0,16.2-6.6,16.2-15.3c0-17.5-16.3-17.5-16.3-17.5h-15.4c0,9.1,0,18.3,0,27.5
		c-1.6,0-3.2,0-4.7,0c0,1.8,0,3.5,0,5.4c1.6,0,3.2,0,4.7,0c0,1.1,0,2.2,0,3.3c-1.6,0-3.1,0-4.7,0c0,1.8,0,3.5,0,5.3
		c1.6,0,3.1,0,4.7,0c0,4.4,0,8.9,0,13.3c2.5,0,5,0,7.5,0c0-4.4,0-8.9,0-13.3c5.6,0,11.2,0,16.8,0c0-1.8,0-3.5,0-5.3
		c-5.6,0-11.2,0-16.8,0c0-1.1,0-2.2,0-3.3C290.2,311.2,292.9,311.2,295.6,311.2z M287.6,305.8v-21.3c0,0,3.1,0,6.8,0
		c4.7,0,10,3.6,10,10.6c0,6.3-5.5,10.7-9.3,10.7C291.9,305.8,287.6,305.8,287.6,305.8z"/>
	<path class="st0" d="M354,351.4h-10.6c-1,0-1.7,0.8-1.7,1.7c0,1,0.8,1.7,1.7,1.7H354c1,0,1.7-0.8,1.7-1.7
		C355.7,352.1,355,351.4,354,351.4z"/>
	<path class="st0" d="M347.1,348.5c0,0.1,0.1,0.2,0.2,0.3c0.1,0.1,0.1,0.2,0.2,0.3c0.3,0.3,0.8,0.5,1.2,0.5c0.5,0,0.9-0.2,1.2-0.5
		c0.1-0.1,0.2-0.2,0.2-0.3c0.1-0.1,0.1-0.2,0.2-0.3c0-0.1,0.1-0.2,0.1-0.3c0-0.1,0-0.2,0-0.3c0-0.1,0-0.2,0-0.3
		c0-0.1-0.1-0.2-0.1-0.3c0-0.1-0.1-0.2-0.2-0.3c-0.1-0.1-0.1-0.2-0.2-0.3c-0.1-0.1-0.2-0.2-0.3-0.2c-0.1-0.1-0.2-0.1-0.3-0.2
		c-0.8-0.3-1.6,0-2.1,0.6c-0.1,0.1-0.1,0.2-0.2,0.3c0,0.1-0.1,0.2-0.1,0.3c0,0.1,0,0.2,0,0.3c0,0.1,0,0.2,0,0.3
		C347,348.2,347.1,348.3,347.1,348.5z"/>
	<path class="st0" d="M350.3,357.8c0-0.1-0.1-0.2-0.2-0.3c-0.1-0.1-0.1-0.2-0.2-0.3c-0.1-0.1-0.2-0.2-0.3-0.2
		c-0.1-0.1-0.2-0.1-0.3-0.2c-0.6-0.3-1.4-0.1-1.9,0.4c-0.1,0.1-0.2,0.2-0.2,0.3c-0.1,0.1-0.1,0.2-0.2,0.3c0,0.1-0.1,0.2-0.1,0.3
		c0,0.1,0,0.2,0,0.3c0,1,0.8,1.7,1.7,1.7c0.1,0,0.2,0,0.3,0c0.1,0,0.2-0.1,0.3-0.1c0.1,0,0.2-0.1,0.3-0.2c0.1-0.1,0.2-0.1,0.3-0.2
		c0.1-0.1,0.2-0.2,0.2-0.3c0.1-0.1,0.1-0.2,0.2-0.3c0-0.1,0.1-0.2,0.1-0.3c0-0.1,0-0.2,0-0.3c0-0.1,0-0.2,0-0.3
		C350.4,358,350.3,357.9,350.3,357.8z"/>
</g>
</svg>
