<?xml version="1.0" encoding="utf-8"?>
<!-- Generator: Adobe Illustrator 25.3.1, SVG Export Plug-In . SVG Version: 6.00 Build 0)  -->
<svg version="1.1" id="Слой_1" xmlns="http://www.w3.org/2000/svg" xmlns:xlink="http://www.w3.org/1999/xlink" x="0px" y="0px"
	 viewBox="0 0 221.6 221.4" style="enable-background:new 0 0 221.6 221.4;" xml:space="preserve">
<style type="text/css">
	.st0{fill:#FFFFFF;}
</style>
<path class="st0" d="M184.7,221.4H36.7l-0.8-0.2c-0.3-0.1-0.7-0.2-1.1-0.3l-0.1,0c-14.3-2.5-24.6-10.2-30.6-23
	c-1.4-3-2.1-5.9-2.9-8.7c-0.3-1.1-0.6-2.2-0.9-3.3L0.1,185l0-0.9C0,172.8,0,161.5,0,150.5V149l0.6-1.3c3-6.4,7.7-9.3,14-8.8l0.1,0
	c7.2,0.7,12,5.9,12.1,13.2c0.1,8.9,0.1,17.8,0,26.6c-0.1,5.3,1.8,9.3,5.9,12.5c2.7,2.2,5.8,3.2,9.4,3.2h40.5c9.1,0,18.3,0,27.4,0
	c22.5,0,45.8-0.1,68.7,0.1c0,0,0.1,0,0.1,0c4.3,0,8.5-1.8,11.6-4.9c2.9-3,4.4-6.9,4.3-10.9c-0.3-7.4-0.2-14.8-0.1-21.9l0.1-4.2
	c0-4.4,1.7-8.2,4.8-10.7c3.1-2.5,7.2-3.5,11.6-2.6c6.2,1.2,10.4,6.2,10.4,12.4c0,2.6,0,5.2,0,7.9c0.1,8.6,0.1,17.4-0.6,26.2
	c-1.4,17.8-15.8,32.5-34.1,35.2c-0.1,0-0.3,0.1-0.4,0.1c-0.4,0.1-0.7,0.2-1,0.3L184.7,221.4z M13.8,151.7L13.8,151.7L13.8,151.7z"/>
<path class="st0" d="M111.1,143.5c-10.1,0-24.5-13.6-46.2-37.1c-2.3-2.5-4.3-4.7-5.4-5.8c-5.3-5.3-6.1-12.3-1.9-17.9
	c2.2-3,5.4-5,9.1-5.5c3.6-0.5,7.2,0.6,10.2,3c0.9,0.7,1.6,1.5,2.3,2.1c4.7,4.6,12,11.9,18.2,18.1V12.7l0-0.2
	C97.9,5.1,103.4,0,110.8,0c7.2,0,12.6,5,13.3,12.3c0.1,1,0.1,1.9,0,2.5c0,0.2,0,0.4,0,0.5v83.8c5.6-6.3,12.1-13.3,16.3-17.6
	c3-3,6.7-4.6,10.5-4.4c3.6,0.1,7,1.8,9.5,4.8c4.2,4.9,4.4,11.7,0.5,16.8c-0.7,0.9-1.4,1.7-2,2.2c-0.1,0.1-0.2,0.2-0.4,0.4
	c-1.3,1.3-3.7,4.2-6.6,7.6C127.2,138,118.5,143.5,111.1,143.5z"/>
</svg>
