<?xml version="1.0" encoding="utf-8"?>
<!-- Generator: Adobe Illustrator 25.3.1, SVG Export Plug-In . SVG Version: 6.00 Build 0)  -->
<svg version="1.1" id="Слой_1_xA0_Изображение_1_"
	 xmlns="http://www.w3.org/2000/svg" xmlns:xlink="http://www.w3.org/1999/xlink" x="0px" y="0px" viewBox="0 0 227.5 227.5"
	 style="enable-background:new 0 0 227.5 215.3;" xml:space="preserve">
<style type="text/css">
	.st0{fill:#FFFFFF;}
</style>
<g>
	<path class="st0" d="M165.8,182.1c-3.1-1.4-6.8-1.1-10.2,0.8c-17.6,9.7-36.5,13-56.1,9.7c-21.3-3.6-39-13.8-52.5-30.3
		c-12-14.8-18.5-32.3-19.3-52.2c-0.4-9.6,1-19.3,4-28.7c0.8-2.4,1.7-4.7,2.6-7.1c0.1,0.3,0.2,0.5,0.3,0.8c2.3,5.3,7.9,7.8,13.2,5.9
		c5.5-2,8.4-7.6,6.6-13.1c-3-9.3-5.7-17.6-8.6-25.7c-2-5.7-7.6-8.4-13.7-6.5c-1.1,0.4-2.2,0.7-3.4,1.1l-1.2,0.4
		c-1.9,0.7-3.9,1.3-5.9,2c-4.8,1.6-9.8,3.3-14.7,5c-4.1,1.5-6.7,4.8-7,9.2c-0.3,4.8,1.9,8.6,5.8,10.2c2.6,1,5.6,0.8,8.1,0.5
		c0.3,0,0.6-0.1,0.9-0.1c-6.2,14.2-9.3,29.3-9.2,44.9c0.1,9.6,1.6,19.3,4.5,29c5.3,17.8,14.7,33.4,27.8,46.4c7.1,7,15.2,13,24,17.9
		c13.9,7.7,28.7,12,43.9,13c2,0.1,4,0.2,5.9,0.2c6,0,11.9-0.5,17.5-1.1c11.7-1.2,23.5-5.1,35.9-11.7c4.8-2.6,7.7-8,6.6-12.5
		C171,186.2,168.9,183.4,165.8,182.1z"/>
	<path class="st0" d="M226.8,157.1c-2.1-5.3-7.5-8-12.9-6.4c-0.4,0.1-0.9,0.3-1.4,0.4c6.2-13.8,9.3-28.3,9.2-43.1
		c0-6.3-0.7-13.2-2-20.5c-3.4-19.2-11.9-36.6-25.4-51.6C184,24.3,171.5,15.2,157.2,9c-11.7-5.1-23.7-8.1-35.7-8.8
		c-7.9-0.5-15.7,0.2-22.4,0.9C86.4,2.4,73.5,6.7,60.9,13.9c-3.2,1.8-5,4.5-5.4,7.8c-0.6,5.6,2.1,8.6,4.4,10.2
		c2.6,1.7,6.7,3.2,12,0.2c17.5-9.9,36.8-13,57.3-9.4c20.6,3.6,37.6,13.5,50.8,29.4c15.1,18.3,21.8,39.7,19.8,63.6
		c-0.7,8.7-2.8,17.1-6.3,25.7c-0.2-0.5-0.4-0.9-0.6-1.4c-2.2-5.2-7.9-7.8-13.2-6.1c-5.5,1.8-8.5,7.5-6.8,13c2.5,8,5.3,16.4,9,26.6
		c1.3,3.8,5.5,6.5,9.3,6.5c0.8,0,1.5-0.1,2.3-0.3c8.2-2.6,17.9-5.8,27.4-9.1c2.5-0.9,4.5-2.7,5.6-5.2
		C227.8,162.8,227.9,159.8,226.8,157.1z"/>
	<path class="st0" d="M91.4,134.7l3.2,3.2c2.3,2.3,5.1,3.4,7.8,3.4c2.4,0,4.7-0.9,6.5-2.6c9.8-9.5,18.8-18.2,27.5-26.8
		c2.8-2.7,5.5-5.6,8.1-8.4c1.5-1.7,3.1-3.3,4.7-4.9c0.8-0.8,1.6-1.6,2.4-2.4c1.7-1.6,3.4-3.3,4.9-5.3c1.5-2,2.8-5.3,2.4-8.1
		c-0.7-4.1-3.2-7.3-6.9-8.6c-3.8-1.3-7.9-0.3-11.1,2.7c-1.6,1.5-3.2,3.1-4.7,4.6c-0.9,1-1.9,1.9-2.8,2.9c-3.4,3.3-6.8,6.6-10.2,9.9
		c-4.6,4.5-9.1,8.9-13.7,13.4c-2.2,2.1-4.3,4.3-6.4,6.5c-0.3,0.3-0.6,0.6-0.9,0.9c-1-1-2-2.1-3-3.1c-3.1-3.2-6.4-6.6-9.7-9.7
		c-0.1-0.1-0.2-0.2-0.3-0.3c-1.4-1.5-4.8-5-9.5-5.1c-2.8,0-5.3,1.1-7.7,3.4c-1.9,1.9-3,4.2-3,6.7c0,3.6,2.1,7.4,6.1,11.4l0.1,0.1
		C80.6,123.9,86.1,129.4,91.4,134.7z"/>
</g>
</svg>
