<?xml version="1.0" encoding="utf-8"?>
<!-- Generator: Adobe Illustrator 25.3.1, SVG Export Plug-In . SVG Version: 6.00 Build 0)  -->
<svg version="1.1" id="Слой_1" xmlns="http://www.w3.org/2000/svg" xmlns:xlink="http://www.w3.org/1999/xlink" x="0px" y="0px"
	 viewBox="0 0 221.6 221.4" style="enable-background:new 0 0 221.6 221.4;" xml:space="preserve">
<style type="text/css">
	.st0{fill:#FFFFFF;}
</style>
<path class="st0" d="M184.7,221.4h-148l-0.8-0.2c-0.3-0.1-0.7-0.2-1.1-0.3h-0.1c-14.3-2.5-24.6-10.2-30.6-23c-1.4-3-2.1-5.9-2.9-8.7
	c-0.3-1.1-0.6-2.2-0.9-3.3L0.1,185v-0.9C0,172.8,0,161.5,0,150.5V149l0.6-1.3c3-6.4,7.7-9.3,14-8.8h0.1c7.2,0.7,12,5.9,12.1,13.2
	c0.1,8.9,0.1,17.8,0,26.6c-0.1,5.3,1.8,9.3,5.9,12.5c2.7,2.2,5.8,3.2,9.4,3.2h40.5c9.1,0,18.3,0,27.4,0c22.5,0,45.8-0.1,68.7,0.1
	h0.1c4.3,0,8.5-1.8,11.6-4.9c2.9-3,4.4-6.9,4.3-10.9c-0.3-7.4-0.2-14.8-0.1-21.9l0.1-4.2c0-4.4,1.7-8.2,4.8-10.7s7.2-3.5,11.6-2.6
	c6.2,1.2,10.4,6.2,10.4,12.4c0,2.6,0,5.2,0,7.9c0.1,8.6,0.1,17.4-0.6,26.2c-1.4,17.8-15.8,32.5-34.1,35.2c-0.1,0-0.3,0.1-0.4,0.1
	c-0.4,0.1-0.7,0.2-1,0.3L184.7,221.4z M13.8,151.7L13.8,151.7L13.8,151.7z"/>
<path class="st0" d="M151.9,34.6c2.9,3.4,5.3,6.3,6.6,7.6c0.2,0.2,0.3,0.3,0.4,0.4c0.6,0.5,1.3,1.3,2,2.2c3.9,5.1,3.7,11.9-0.5,16.8
	c-2.5,3-5.9,4.7-9.5,4.8c-3.8,0.2-7.5-1.4-10.5-4.4c-4.2-4.3-10.7-11.3-16.3-17.6v83.8c0,0.1,0,0.3,0,0.5c0.1,0.6,0.1,1.5,0,2.5
	c-0.7,7.3-6.1,12.3-13.3,12.3c-7.4,0-12.9-5.1-13.4-12.5v-0.2V43.1c-6.2,6.2-13.5,13.5-18.2,18.1c-0.7,0.6-1.4,1.4-2.3,2.1
	c-3,2.4-6.6,3.5-10.2,3c-3.7-0.5-6.9-2.5-9.1-5.5c-4.2-5.6-3.4-12.6,1.9-17.9c1.1-1.1,3.1-3.3,5.4-5.8C86.6,13.6,101,0,111.1,0
	C118.5,0,127.2,5.5,151.9,34.6z"/>
</svg>
